<svg width="192" height="192" viewBox="0 0 192 192" fill="none" xmlns="http://www.w3.org/2000/svg">
<g clip-path="url(#clip0_103_6)">
<path d="M0 96C0 42.9807 42.9807 0 96 0V0C149.019 0 192 42.9807 192 96V96C192 149.019 149.019 192 96 192V192C42.9807 192 0 149.019 0 96V96Z" fill="white"/>
<path d="M139.012 129.368C138.42 129.609 137.809 129.726 137.205 129.726C135.314 129.726 133.521 128.595 132.766 126.727C131.595 123.841 130.134 121.179 128.385 118.748C128.236 121.13 127.943 123.503 127.536 125.858C127.028 128.802 126.249 131.702 125.183 134.495C124.012 137.562 122.632 140.549 120.883 143.33C119.201 146.006 117.24 148.545 115.081 150.851C112.934 153.148 110.534 155.148 108.021 157.025C105.592 158.838 102.989 160.429 100.264 161.75C97.8963 162.898 95.4326 163.922 92.8992 164.647C90.572 165.312 88.1577 165.7 85.7492 165.904C83.9479 166.058 82.1292 166.029 80.3366 165.799C78.1635 165.522 76.0455 165.175 73.9682 164.467C71.9519 163.779 69.9647 162.913 68.1111 161.861C66.2633 160.811 64.5666 159.535 62.9164 158.2C61.6032 157.138 60.3743 155.972 59.2238 154.734C57.7276 153.119 56.3475 151.349 55.2145 149.458C54.1046 147.612 53.2301 145.595 52.53 143.561C51.8211 141.503 51.4782 139.401 51.2022 137.244C50.9872 135.574 50.9437 133.88 51.0715 132.198C51.2371 130.07 51.5538 127.919 52.1407 125.864C52.3731 125.05 52.6491 124.249 52.9658 123.465C53.4539 122.252 53.9594 121.039 54.5695 119.882C55.5834 117.976 56.8763 116.221 58.2679 114.574C59.7526 112.816 61.4986 111.382 63.3319 109.995C64.9472 108.773 66.7049 107.744 68.5673 106.949C70.7753 106.007 72.963 105.197 75.3453 104.844C77.7335 104.488 80.081 104.27 82.4895 104.538C84.9183 104.812 87.2832 105.232 89.5726 106.097C91.8969 106.978 94.1833 108.033 96.2403 109.447C98.1171 110.735 99.8748 112.225 101.365 113.953C102.888 115.72 104.294 117.635 105.395 119.696C106.057 120.937 106.606 122.238 107.124 123.543C107.466 124.409 107.76 125.295 107.989 126.196C108.321 127.511 108.501 128.863 108.649 130.207C108.742 131.067 108.762 131.933 108.707 132.796C108.704 133.822 108.445 134.778 107.934 135.664C107.638 136.046 107.344 136.431 107.048 136.812C106.028 137.929 104.506 138.413 103.042 138.48C102.263 138.509 101.534 138.346 100.86 137.99C100.157 137.76 99.5494 137.369 99.0352 136.812C98.4832 136.299 98.0939 135.69 97.8644 134.985C97.5099 134.306 97.3472 133.577 97.3763 132.796C97.4257 132.043 97.4111 131.289 97.3443 130.539C97.1177 129.274 96.7603 128.038 96.3013 126.837C95.5982 125.292 94.7382 123.826 93.7417 122.453C93.7359 122.447 93.733 122.442 93.7272 122.436C92.8382 121.357 91.862 120.354 90.7928 119.457C89.5407 118.556 88.1897 117.795 86.7893 117.151C85.3192 116.58 83.7969 116.151 82.2454 115.883C80.8073 115.74 79.3576 115.737 77.9165 115.877C76.4435 116.131 74.9996 116.53 73.605 117.069C73.6021 117.069 73.5992 117.069 73.5963 117.075C72.1001 117.769 70.6823 118.617 69.3517 119.591C69.3459 119.594 69.3372 119.599 69.3313 119.608C68.146 120.593 67.0507 121.678 66.0687 122.87C66.0629 122.876 66.0571 122.885 66.0513 122.89C66.0425 122.905 66.0309 122.917 66.0222 122.931C65.1303 124.182 64.3575 125.514 63.7212 126.916C63.143 128.446 62.7189 130.029 62.4545 131.638C62.4516 131.644 62.4487 131.65 62.4516 131.656C62.2947 133.277 62.2947 134.912 62.4516 136.533C62.4516 136.541 62.4516 136.547 62.4545 136.556C62.7189 138.168 63.146 139.751 63.7212 141.278C64.3807 142.733 65.1855 144.117 66.1181 145.414C67.5155 147.131 69.1251 148.697 70.8421 150.09C72.4342 151.268 74.1367 152.294 75.9351 153.119C77.5301 153.74 79.1803 154.2 80.8625 154.489C80.8683 154.489 80.8741 154.492 80.8799 154.492C82.7074 154.681 84.5435 154.669 86.371 154.474C88.733 154.086 91.0369 153.413 93.2594 152.527C94.2647 152.084 95.2467 151.6 96.2141 151.081C98.3902 149.912 100.482 148.58 102.455 147.088C102.891 146.735 103.321 146.379 103.745 146.012C105.778 144.251 107.647 142.304 109.317 140.2C109.631 139.78 109.933 139.354 110.229 138.92C111.688 136.783 112.946 134.512 113.992 132.146C114.224 131.571 114.442 130.991 114.651 130.405C115.645 127.586 116.348 124.672 116.792 121.713C116.795 121.695 116.795 121.681 116.798 121.663C116.897 120.833 116.975 120.002 117.034 119.171C117.292 115.516 117.179 111.846 116.784 108.205C110.287 104.305 102.19 101.716 92.536 100.46C75.9235 98.3027 60.6677 101.011 58.9826 101.326C56.7572 101.745 54.5027 100.524 53.6282 98.4251C52.7537 96.3234 53.4742 93.8574 55.3394 92.5602C57.1814 91.2893 73.6893 79.8539 89.6481 66.9843C115.601 46.0519 118.844 38.4088 119.242 36.6861C117.673 36.5024 112.025 36.7181 96.5976 44.3641C86.3216 49.4566 77.0682 55.1961 76.9752 55.2515C74.7265 56.6536 71.7718 55.9569 70.3773 53.7008C68.9798 51.4417 69.6742 48.4771 71.9229 47.0779C72.3151 46.8331 81.6382 41.0498 92.3414 35.7445C113.01 25.5013 120.046 26.2826 123.867 28.1073C126.65 29.4366 128.405 31.923 128.812 35.1062C129.43 39.9742 126.252 45.8012 118.507 54.001C113.199 59.6182 105.68 66.3692 96.1648 74.0677C88.8957 79.9501 81.4871 85.5497 75.3279 90.0796C80.8625 89.9163 87.2222 90.0708 93.7679 90.922C101.359 91.9073 108.236 93.6912 114.303 96.2389C113.393 93.0383 112.315 89.8843 111.113 86.7828C110.845 85.7742 110.845 84.7656 111.113 83.7599C111.304 83.3052 111.496 82.8534 111.685 82.4016C112.376 81.0869 113.701 80.2357 115.07 79.7897C115.825 79.5536 116.577 79.5186 117.33 79.6877C118.085 79.7227 118.785 79.9471 119.436 80.3611C120.096 80.7196 120.627 81.2064 121.025 81.8273C121.528 82.3753 121.865 83.0195 122.039 83.7599C122.844 85.8383 123.594 87.94 124.274 90.0621C125.546 94.041 126.583 98.1045 127.286 102.223C127.391 102.838 127.493 103.456 127.586 104.074C133.849 109.135 138.565 115.51 141.644 123.1C142.644 125.561 141.464 128.368 139.012 129.368Z" fill="black" stroke="black" stroke-width="4" stroke-miterlimit="10"/>
</g>
<defs>
<clipPath id="clip0_103_6">
<rect width="192" height="192" fill="white"/>
</clipPath>
</defs>
</svg>
