<svg width="381" height="117" viewBox="0 0 381 117" fill="none" xmlns="http://www.w3.org/2000/svg">
<path d="M16.0187 98.0768C16.0468 103.898 18.3855 109.364 22.5765 113.778C23.4278 114.671 26.8704 113.458 27.5908 112.776C42.2874 98.7507 59.5285 86.907 78.4722 77.9021C87.902 73.4207 97.7247 69.6385 107.837 66.606C112.898 65.0897 118.034 63.7841 123.217 62.6637C124.33 62.4194 125.453 62.192 126.566 61.973C127.941 61.7034 129.55 61.1896 130.963 61.4339C133.049 61.7961 134.115 63.5145 134.368 65.2751C134.677 67.4062 134.078 69.6048 133.273 71.6012C132.067 74.6169 130.626 77.5736 129.298 80.5471C126.547 86.6964 123.806 92.8373 121.056 98.9865C120.476 100.284 125.406 98.8939 125.818 98.6664C148.232 86.0646 171.9 75.2739 196.466 66.5133C220.864 57.8117 246.122 51.0391 271.857 46.4061C279.051 45.1088 286.404 43.6431 293.711 42.9861C297.125 42.6828 304.88 44.0643 303.178 48.5541C302.691 49.8261 307.023 48.6552 307.425 48.4867C324.507 41.4951 342.281 35.9692 360.505 31.9511C361.029 31.8332 363.208 31.2688 362.984 30.5022C362.759 29.7357 360.467 30.2664 360.037 30.3674C340.887 34.5877 322.224 40.4253 304.282 47.7791L308.529 47.7117C310.147 43.4662 304.59 41.5793 300.914 41.0908C298.201 40.7285 295.591 40.9812 292.897 41.3519C289.492 41.8152 286.096 42.3206 282.7 42.8597C268.892 45.0499 255.187 47.8297 241.66 51.1739C214.633 57.8538 188.28 66.7745 163.078 77.8179C148.877 84.043 135.042 90.9419 121.645 98.4727L126.407 98.1526C129.026 92.2897 131.646 86.4269 134.265 80.564C135.575 77.6326 136.894 74.7011 138.194 71.7697C139.036 69.8744 139.682 67.9117 139.831 65.8647C139.962 64.0705 139.644 62.2004 138.204 60.8611C136.342 59.1174 133.32 59.2016 130.86 59.5217C125.125 60.2714 119.381 61.7624 113.825 63.2197C91.7469 68.9983 70.7357 78.0874 52.0071 90.108C41.4267 96.9059 31.576 104.605 22.6514 113.113L27.6656 112.111C23.6149 107.84 21.4539 102.39 21.4259 96.7795C21.4259 95.9372 16 96.6447 16 98.0852L16.0187 98.0768Z" fill="#1E4CFF" stroke="#1E4CFF" stroke-width="4" stroke-linejoin="bevel"/>
<path d="M32.712 22.5003C33.862 28.8903 35.022 35.2803 36.172 41.6703L41.732 39.6703C38.172 35.0303 33.602 31.1403 28.452 28.3603C23.302 25.5803 17.372 23.4703 11.602 23.3903C8.462 23.3503 4.712 24.2103 3.052 27.1803C1.522 29.9103 2.872 32.9403 4.482 35.2803C6.462 38.1603 8.872 40.8003 11.072 43.5103C13.272 46.2203 15.672 49.1903 17.962 52.0303C23.182 58.4903 28.412 64.9403 33.632 71.4003C35.082 73.1903 38.592 71.7403 39.222 69.9003C41.992 61.8803 48.732 54.9403 56.622 52.3003C57.642 51.9603 59.412 51.1103 59.042 49.7303C58.692 48.4403 56.652 48.3803 55.662 48.7103C45.282 52.1903 36.962 60.0503 33.372 70.4403L38.962 68.9403C30.712 58.7403 22.462 48.5403 14.202 38.3403C12.382 36.0903 10.062 33.8303 8.832 31.1803C8.402 30.2603 7.972 29.0503 8.332 28.0403C8.442 27.7303 8.642 27.4903 8.822 27.3403C8.642 27.4903 8.362 27.3703 8.942 27.3403C8.502 27.3703 9.582 27.2803 9.522 27.2803C11.592 27.1803 14.062 27.8103 16.142 28.3903C18.532 29.0503 20.852 29.9303 23.062 31.0603C28.292 33.7203 32.822 37.4703 36.392 42.1203C37.702 43.8303 42.382 42.4703 41.952 40.1203C40.802 33.7303 39.642 27.3403 38.492 20.9503C38.052 18.5203 32.242 19.9703 32.692 22.5003H32.712Z" fill="black"/>
<path d="M3.33207 53.7103C3.52207 53.6603 4.44207 53.4703 3.92207 53.5703C3.35207 53.6803 4.06207 53.5503 4.19207 53.5303C4.43207 53.4903 4.68207 53.4503 4.93207 53.4103C5.91207 53.2603 6.89207 53.1203 7.88207 53.0003C10.4621 52.6803 13.0421 52.4103 15.6221 52.1503C21.0021 51.6103 26.3921 51.1403 31.7621 50.4903C33.9721 50.2203 36.2021 49.9403 38.3621 49.4203C39.2721 49.2003 41.1521 48.3603 40.8521 47.1403C40.5521 45.9203 38.3521 46.2103 37.5521 46.4103C37.3621 46.4603 36.4421 46.6503 36.9621 46.5503C37.5321 46.4403 36.8221 46.5703 36.6921 46.5903C36.4521 46.6303 36.2021 46.6703 35.9521 46.7103C34.9721 46.8603 33.9921 47.0003 33.0021 47.1203C30.4221 47.4403 27.8421 47.7103 25.2621 47.9703C19.8821 48.5103 14.4921 48.9803 9.12207 49.6303C6.91207 49.9003 4.68207 50.1803 2.52207 50.7003C1.61207 50.9203 -0.267925 51.7603 0.0320746 52.9803C0.332075 54.2003 2.53207 53.9103 3.33207 53.7103Z" fill="black"/>
<path d="M65.492 2.8403C70.982 17.3803 79.232 30.7703 89.712 42.2503C90.222 42.8103 92.122 42.3003 92.682 42.1503C93.302 41.9803 95.152 41.5203 95.302 40.7503C96.102 36.7603 91.822 33.7803 89.212 31.4603C85.992 28.5903 82.542 25.8903 78.592 24.1003C71.162 20.7303 61.542 21.1403 54.982 26.3003C49.292 30.7703 48.222 39.1603 50.942 45.5703C53.972 52.6803 60.872 57.5303 67.812 60.3703C72.852 62.4303 78.122 63.1203 83.392 61.4203C87.352 60.1403 91.492 57.4103 92.222 53.0103C92.392 52.0103 90.442 52.3703 89.902 52.4603C89.232 52.5803 86.662 53.0803 86.502 54.0303C86.082 56.5403 84.202 59.3403 81.762 59.9903C82.062 59.9103 81.532 60.0203 81.452 60.0303C81.112 60.0703 80.782 60.0803 80.442 60.0803C79.492 60.0803 78.562 59.9503 77.632 59.7603C75.692 59.3603 73.832 58.6803 72.032 57.8703C66.132 55.2203 60.412 51.2003 57.362 45.3403C54.642 40.1203 54.422 33.3203 57.832 28.3503C58.662 27.1403 59.762 26.0703 61.022 25.3103C61.482 25.0403 61.952 24.8003 62.452 24.6303C62.772 24.5203 63.072 24.4403 63.612 24.3603C66.662 23.9303 69.942 24.6703 72.732 25.8903C76.442 27.5003 79.732 29.9403 82.772 32.5703C84.312 33.9003 85.852 35.2503 87.282 36.7003C88.572 38.0103 89.962 39.8003 89.572 41.7703L95.162 40.2703C84.812 28.9303 76.692 15.6403 71.272 1.2703C70.762 -0.0796984 65.052 1.7103 65.472 2.8203L65.492 2.8403Z" fill="black"/>
<path d="M64.4021 36.6503C64.0021 38.3703 64.4021 40.0303 65.3021 41.5203C66.2021 43.0103 67.7621 44.0503 69.4821 44.5303C70.1221 44.7103 71.0221 44.5703 71.6421 44.4103C72.2621 44.2503 73.0921 43.9103 73.5821 43.4403C73.8921 43.1403 74.3321 42.6703 74.1521 42.1903C73.9721 41.7103 73.5021 41.5303 73.0321 41.3903C72.9721 41.3703 72.9121 41.3603 72.8621 41.3403L73.3921 41.5103C72.9021 41.3503 72.4421 41.1203 72.0221 40.8403L72.4021 41.1103C71.6821 40.6003 71.0921 39.9503 70.6421 39.1803L70.8521 39.5403C70.3621 38.6703 70.0821 37.6903 70.0721 36.6903V37.1003C70.0721 36.7103 70.1221 36.3203 70.2121 35.9303C70.3221 35.4603 70.0121 35.0903 69.6221 34.8903C69.0921 34.6203 68.2821 34.6103 67.7121 34.6903C66.9521 34.8003 66.1621 35.0103 65.5221 35.4303C65.0721 35.7203 64.5521 36.1003 64.4221 36.6503H64.4021Z" fill="#1E4CFF"/>
<path d="M126.872 23.5103C120.962 20.5903 114.062 20.6303 108.062 23.3303C103.212 25.5203 99.0621 29.9103 98.3221 35.3403C97.6321 40.4103 99.9821 45.1403 103.742 48.4603C107.912 52.1403 113.302 53.8103 118.802 53.9103C126.722 54.0603 134.372 51.4903 141.652 48.6303C142.242 48.4003 144.042 47.6403 143.322 46.7803C142.662 45.9803 140.262 46.7203 139.562 46.9903C130.502 50.5403 119.972 53.9303 111.152 47.9203C107.752 45.6003 105.002 42.2203 104.212 38.1003C103.382 33.7903 105.082 29.3603 108.282 26.4203C111.972 23.0403 117.162 23.4503 121.432 25.5703C122.572 26.1403 124.052 25.8003 125.192 25.3603C125.462 25.2603 127.882 24.0103 126.862 23.5103H126.872Z" fill="black"/>
<path d="M135.862 24.6803C136.622 23.5403 137.552 22.5403 138.712 21.7903C138.882 21.6803 139.232 21.4803 139.312 21.4303C139.392 21.3803 140.032 21.1103 139.722 21.2303C139.902 21.1603 140.092 21.0903 140.282 21.0303C140.222 21.0503 139.892 21.1403 140.232 21.0503C140.722 20.9203 139.832 21.1303 140.332 21.0203C140.392 21.0103 140.852 20.9203 140.722 20.9403C143.182 20.5603 146.292 21.1503 148.762 22.1503C155.442 24.8603 159.452 31.1803 161.972 37.6503C163.532 41.6603 164.602 45.8303 165.632 49.9903L171.272 48.2603C166.932 44.6203 164.082 39.2403 158.882 36.6503C156.222 35.3203 153.332 35.0203 150.412 35.5803C148.002 36.0403 145.432 36.9603 143.672 38.7403C141.152 41.2803 140.172 45.4203 141.532 48.7803C143.142 52.7803 147.442 53.8803 151.372 53.3403C156.372 52.6503 162.172 50.0603 163.212 44.6003C163.342 43.9303 160.352 44.5403 160.112 44.6003C159.332 44.8103 157.602 45.1903 157.422 46.1503C157.142 47.6303 156.332 49.0603 155.222 50.0803C154.772 50.4903 154.292 50.8703 153.752 51.1503C153.822 51.1203 152.972 51.4703 153.382 51.3203C153.862 51.1503 153.402 51.3103 153.312 51.3303C153.482 51.2803 153.782 51.3503 153.522 51.2703C153.212 51.1803 152.422 51.2603 151.942 51.1603C151.222 51.0103 150.542 50.7203 149.922 50.3303C148.652 49.5403 147.752 48.3703 147.242 46.9703C146.282 44.3303 146.712 41.2403 148.302 38.9303C148.662 38.4103 149.072 37.9403 149.582 37.5503C149.712 37.4503 150.132 37.1703 150.122 37.2003C150.052 37.4703 148.842 37.3403 149.512 37.4703C150.402 37.6403 151.262 37.6703 152.122 37.9903C153.202 38.3803 154.212 38.9403 155.162 39.5803C159.352 42.4003 161.952 46.9503 165.802 50.1703C166.562 50.8003 171.732 49.6003 171.442 48.4403C169.392 40.2003 167.132 31.5303 161.222 25.1303C156.102 19.5803 148.332 17.6103 141.042 19.2103C136.802 20.1503 132.642 22.0403 130.162 25.7403C129.622 26.5403 132.252 26.1803 132.442 26.1403C133.462 25.9503 135.222 25.6003 135.862 24.6503V24.6803Z" fill="black"/>
<path d="M174.822 2.38031C174.232 14.5203 175.552 26.7203 178.782 38.4403C179.992 42.8203 181.432 48.1403 185.942 50.2003C188.622 51.4203 191.722 51.2203 194.562 50.8603C197.402 50.5003 200.092 49.9203 202.762 49.1103C208.912 47.2503 214.732 44.3603 219.792 40.3803C220.652 39.7003 220.532 38.9903 219.392 38.8703C218.112 38.7403 216.322 39.1603 215.292 39.9703C211.532 42.9203 207.372 45.2503 202.832 46.7703C200.732 47.4703 198.562 47.9603 196.382 48.2803C194.202 48.6003 191.982 48.6903 190.082 47.4303C186.322 44.9303 185.262 39.5803 184.192 35.5103C182.812 30.2503 181.812 24.8903 181.192 19.4803C180.482 13.2903 180.302 7.05031 180.602 0.820312C180.652 -0.299688 174.902 0.490312 174.802 2.37031L174.822 2.38031Z" fill="black"/>
<path d="M158.612 27.6003C171.602 26.5603 184.532 24.8503 197.342 22.4603C198.432 22.2603 200.402 21.7603 200.612 20.4003C200.822 19.0403 198.952 18.8303 198.072 19.0003C185.262 21.3903 172.332 23.1003 159.342 24.1403C158.252 24.2303 156.272 24.9203 156.072 26.2003C155.862 27.5503 157.732 27.6703 158.612 27.6003Z" fill="black"/>
<path d="M215.502 18.1803C211.662 22.5703 210.412 29.1603 212.932 34.5103C215.452 39.8603 220.752 43.0803 226.442 43.3703C227.832 43.4403 229.412 43.1403 230.542 42.2703C231.392 41.6203 231.332 40.7203 230.112 40.6503C225.172 40.3903 220.572 37.1703 218.592 32.6303C216.482 27.8003 217.362 21.9403 220.832 17.9803C221.712 16.9703 220.072 16.6703 219.372 16.6903C218.112 16.7303 216.392 17.1603 215.522 18.1603L215.502 18.1803Z" fill="black"/>
<path d="M214.672 3.42031C214.192 6.08031 213.722 8.74031 213.242 11.4003C213.172 11.7903 213.332 11.9303 213.722 12.0403C214.262 12.2003 215.032 12.1103 215.572 12.0003C216.322 11.8603 217.092 11.6603 217.782 11.3103L218.332 11.0103C218.602 10.8603 218.812 10.6603 218.962 10.4003C219.442 7.74031 219.912 5.08031 220.392 2.42031C220.462 2.03031 220.302 1.89031 219.912 1.78031C219.372 1.62031 218.602 1.71031 218.062 1.82031C217.312 1.96031 216.542 2.16031 215.852 2.51031L215.302 2.81031C215.032 2.96031 214.822 3.16031 214.672 3.42031Z" fill="black"/>
<path d="M260.812 15.6403C252.132 12.4403 242.682 9.65032 233.832 13.9403C230.382 15.6203 227.332 18.1403 225.802 21.7303C224.352 25.1403 224.832 29.0303 226.612 32.2103C230.662 39.4303 239.032 43.3903 247.002 44.3103C255.442 45.2803 265.522 42.5803 269.852 34.6003C271.832 30.9403 272.212 26.6803 270.192 22.9403C268.172 19.2003 264.422 16.7403 260.052 16.6603C258.802 16.6403 256.932 17.0903 256.222 18.2303C255.512 19.3703 256.842 19.8603 257.772 19.8703C260.512 19.9203 262.892 22.0003 264.252 24.2403C265.792 26.7903 266.112 29.8403 265.232 32.6603C264.352 35.4803 262.502 37.7403 260.142 39.2903C257.502 41.0303 254.392 41.4703 251.252 41.2803C244.592 40.8603 237.762 37.7303 233.612 32.4203C231.822 30.1403 230.522 27.1803 230.772 24.2203C231.022 21.2603 232.512 18.6803 234.902 16.9703C236.082 16.1303 237.262 15.6303 238.452 15.3003C239.812 14.9303 241.452 14.8203 243.122 14.9103C247.632 15.1603 251.982 16.8403 256.182 18.3903C257.492 18.8703 259.112 18.5403 260.282 17.8303C260.962 17.4203 262.132 16.1203 260.812 15.6303V15.6403Z" fill="black"/>
<path d="M274.132 10.5303C276.302 19.1103 278.462 27.6903 280.632 36.2703C281.312 38.9603 287.082 37.4403 286.432 34.7203C285.002 28.7903 285.082 22.1303 288.352 16.7903C289.592 14.7603 291.452 12.9403 293.532 11.8103C295.742 10.6103 297.882 10.1303 300.452 10.5503L298.802 9.71031C303.432 18.7503 305.652 29.0203 305.272 39.1603C305.162 42.1903 311.052 41.3703 311.142 38.7303C311.542 28.0603 309.262 17.5003 304.502 7.95031C303.792 6.53031 302.682 6.27031 301.162 6.16031C299.882 6.07031 298.592 6.09031 297.322 6.29031C294.912 6.66031 292.572 7.43031 290.462 8.65031C286.222 11.1003 282.902 14.8503 281.212 19.4603C279.232 24.8603 279.292 30.7403 280.632 36.2803L286.432 34.7303C284.262 26.1503 282.102 17.5703 279.932 8.99031C279.252 6.30031 273.452 7.83031 274.132 10.5403V10.5303Z" fill="black"/>
<path d="M126.872 23.5103C120.962 20.5903 114.062 20.6303 108.062 23.3303C103.212 25.5203 99.0621 29.9103 98.3221 35.3403C97.6321 40.4103 99.9821 45.1403 103.742 48.4603C107.912 52.1403 113.302 53.8103 118.802 53.9103C126.722 54.0603 134.372 51.4903 141.652 48.6303C142.242 48.4003 144.042 47.6403 143.322 46.7803C142.662 45.9803 140.262 46.7203 139.562 46.9903C130.502 50.5403 119.972 53.9303 111.152 47.9203C107.752 45.6003 105.002 42.2203 104.212 38.1003C103.382 33.7903 105.082 29.3603 108.282 26.4203C111.972 23.0403 117.162 23.4503 121.432 25.5703C122.572 26.1403 124.052 25.8003 125.192 25.3603C125.462 25.2603 127.882 24.0103 126.862 23.5103H126.872Z" fill="black"/>
</svg>
