<svg width="392" height="140" viewBox="0 0 392 140" fill="none" xmlns="http://www.w3.org/2000/svg">
<g clip-path="url(#clip0_142_750)">
<path d="M45.0811 29.4437C45.0111 37.8837 44.9311 46.3137 44.8611 54.7537L50.6711 53.6737C44.0611 40.7237 30.0311 33.0837 15.6111 33.7837C14.3211 33.8437 11.5311 35.1237 12.6011 36.8037C21.2011 50.2537 21.5111 66.9237 23.8211 82.2337C24.5011 86.7037 25.3411 91.1437 26.5711 95.4937C27.0011 97.0337 29.6911 96.6237 30.6711 96.1237C41.5211 90.6437 53.6911 88.6237 65.7411 90.2137C67.0211 90.3837 68.8911 89.7237 69.5411 88.5537C70.2511 87.2837 68.9211 86.6737 67.8911 86.5437C54.4111 84.7637 40.3911 87.1837 28.2611 93.3137L32.3611 93.9437C27.9911 78.4537 28.6911 61.9637 23.6711 46.6237C22.2711 42.3337 20.3711 38.2137 17.9411 34.4137L14.9311 37.4337C27.1411 36.8437 39.3611 44.4437 44.8711 55.2337C45.4311 56.3237 46.7211 56.4137 47.8211 56.2037C48.7211 56.0337 50.6711 55.3437 50.6811 54.1537C50.7511 45.7137 50.8311 37.2837 50.9011 28.8437C50.9111 27.4937 49.4311 27.2137 48.3211 27.3237C47.3711 27.4237 45.0811 28.1337 45.0711 29.4437H45.0811Z" fill="black"/>
<path d="M3.46113 74.4837C21.4811 70.1337 39.8311 67.2637 58.3211 65.8837C59.5711 65.7937 61.3611 64.9937 61.5211 63.5837C61.6811 62.1737 59.9611 61.6637 58.8611 61.7537C39.8511 63.1737 20.9611 66.1637 2.43113 70.6337C1.31113 70.9037 -0.308866 71.9837 0.0511342 73.3437C0.411134 74.7037 2.37113 74.7637 3.47113 74.5037L3.46113 74.4837Z" fill="black"/>
<path d="M71.5612 59.7837C78.2412 60.0137 83.7812 64.5637 88.4212 68.9337C94.1812 74.3737 99.7112 80.0737 105.331 85.6437C106.421 86.7237 111.741 84.5937 110.781 83.6437C104.971 77.8837 99.2812 71.9437 93.2812 66.3837C88.2412 61.7137 82.4012 57.5937 75.3012 57.3437C73.9312 57.2937 72.3512 57.6737 71.2012 58.4437C70.3212 59.0337 70.3912 59.7437 71.5612 59.7837Z" fill="black"/>
<path d="M79.471 87.3737C83.261 81.2637 87.6109 75.5137 92.431 70.1937C94.761 67.6237 97.1909 65.1437 99.7309 62.7837C101.091 61.5237 102.481 60.3037 103.891 59.1137C104.541 58.5637 105.201 58.0237 105.871 57.4837C106.201 57.2137 106.541 56.9537 106.871 56.6837C107.091 56.5037 107.321 56.3337 107.541 56.1537C107.071 56.3337 106.591 56.4437 106.101 56.4837L104.871 56.0537L105.021 56.1437L104.361 55.2437V55.0137C103.811 57.8837 109.731 57.1737 110.221 54.5737C110.781 51.6237 106.201 52.0637 104.681 52.8637C102.771 53.8637 101.041 55.6137 99.4109 57.0137C96.1009 59.8337 92.9309 62.8337 89.9209 65.9737C83.8709 72.3037 78.5509 79.2737 73.9409 86.7037C73.1709 87.9437 74.6209 89.0037 75.7109 89.1437C77.2109 89.3337 78.7009 88.6337 79.4809 87.3637L79.471 87.3737Z" fill="black"/>
<path d="M112.231 69.0537C121.631 68.9937 131.021 68.6337 140.401 67.9537C144.051 67.6837 148.141 67.5237 151.101 65.0737C152.541 63.8837 153.461 62.2537 153.211 60.3437C152.961 58.4337 151.511 57.0037 150.141 55.8037C147.121 53.1637 143.591 51.1537 139.781 49.8837C135.761 48.5437 131.031 47.8437 127.301 50.3737C124.211 52.4737 123.421 56.1437 123.321 59.6437C123.181 64.1837 123.341 68.7337 123.701 73.2637C124.101 78.3637 124.811 83.4337 125.831 88.4437C126.321 90.8737 126.891 93.2837 127.521 95.6737C128.101 97.8637 128.601 99.9937 130.471 101.454C131.921 102.584 134.631 101.504 135.471 100.114C135.871 99.4637 136.271 98.8037 136.671 98.1537C137.411 96.9337 136.021 96.0437 134.961 95.9337C133.551 95.7937 131.921 96.4137 131.171 97.6537C130.771 98.3037 130.371 98.9637 129.971 99.6137L134.971 98.2737C133.911 97.4537 133.691 95.5537 133.371 94.3537C132.831 92.3437 132.351 90.3237 131.911 88.2937C131.111 84.5437 130.471 80.7537 130.011 76.9537C129.551 73.1537 129.261 69.3437 129.161 65.5137C129.081 62.2337 128.821 58.6937 129.561 55.4637C129.771 54.5337 130.191 53.2137 131.071 52.7437C131.841 52.3337 133.451 52.7437 134.391 52.9837C137.551 53.7837 140.491 55.1537 143.151 57.0237C144.561 58.0137 148.801 61.0137 147.011 62.9537C146.901 63.0737 146.611 63.2337 146.161 63.4037C146.671 63.2037 145.671 63.5337 145.691 63.5237C145.721 63.5237 144.681 63.7337 145.201 63.6437C143.501 63.9337 141.721 63.9637 140.001 64.0837C130.951 64.7237 121.891 65.0537 112.821 65.1137C111.621 65.1137 109.781 66.0237 109.601 67.3437C109.401 68.8137 111.201 69.0537 112.231 69.0437V69.0537Z" fill="black"/>
<path d="M155.761 68.4937C161.271 69.1437 166.811 69.4337 172.361 69.2937C177.911 69.1537 184.041 69.1037 188.831 66.1137C190.531 65.0537 191.941 63.5237 192.171 61.4737C192.431 59.2237 191.141 57.2637 189.721 55.6537C186.681 52.2237 182.741 49.6737 178.301 48.4937C173.551 47.2337 167.591 47.6437 163.651 50.8337C160.531 53.3637 159.661 57.6937 159.221 61.4737C158.661 66.3137 158.491 71.3937 158.991 76.2337C159.461 80.7537 160.781 85.3737 163.961 88.7537C167.611 92.6337 173.161 92.1737 177.651 90.0037C182.141 87.8337 185.481 83.3737 188.291 79.1737C188.841 78.3437 186.201 78.6837 186.001 78.7237C184.961 78.9137 183.231 79.2737 182.591 80.2437C180.571 83.2737 178.411 86.4137 175.481 88.6437C175.261 88.8037 173.951 89.3937 173.891 89.6137C173.961 89.3637 174.851 89.6337 174.441 89.4537C174.231 89.3637 173.791 89.4137 173.571 89.3737C172.121 89.0937 170.841 88.2237 169.801 87.2037C164.011 81.5837 164.351 71.9637 164.671 64.5737C164.821 61.0937 165.031 57.4837 166.291 54.1937C166.811 52.8437 167.521 51.4637 168.621 50.5037C168.711 50.4237 169.241 50.1237 169.291 50.0037C169.231 50.1637 168.411 50.0537 169.331 50.0637C170.111 50.0737 170.871 50.1237 171.641 50.2437C175.241 50.8137 178.561 52.5037 181.361 54.8037C183.891 56.8737 187.701 60.5237 186.021 64.1637C185.371 65.5837 184.211 66.4037 182.701 66.6237C180.461 66.9537 178.161 66.9937 175.901 67.0437C170.771 67.1637 165.641 66.9237 160.541 66.3237C159.191 66.1637 157.721 66.5337 156.501 67.0937C156.111 67.2737 154.441 68.3237 155.761 68.4837V68.4937Z" fill="black"/>
<path d="M171.511 56.7537C171.511 58.0337 171.511 59.3037 171.511 60.5837C171.511 60.8937 171.601 61.1337 171.861 61.3137C172.121 61.4937 172.531 61.5737 172.851 61.5437C173.231 61.5037 173.641 61.3937 173.941 61.1437C174.171 60.9637 174.451 60.6837 174.451 60.3637C174.451 59.0837 174.451 57.8137 174.451 56.5337C174.451 56.2237 174.361 55.9837 174.101 55.8037C173.841 55.6237 173.431 55.5437 173.111 55.5737C172.731 55.6137 172.321 55.7237 172.021 55.9737C171.791 56.1537 171.511 56.4337 171.511 56.7537Z" fill="#1E4CFF"/>
<path d="M244.521 66.5837C250.031 67.2337 255.571 67.5237 261.121 67.3837C266.671 67.2437 272.801 67.1937 277.591 64.2037C279.291 63.1437 280.701 61.6137 280.931 59.5637C281.191 57.3137 279.901 55.3537 278.481 53.7437C275.441 50.3137 271.501 47.7637 267.061 46.5837C262.311 45.3237 256.351 45.7337 252.411 48.9237C249.291 51.4537 248.421 55.7837 247.981 59.5637C247.421 64.4037 247.251 69.4837 247.751 74.3237C248.221 78.8437 249.541 83.4637 252.721 86.8437C256.371 90.7237 261.921 90.2637 266.411 88.0937C270.901 85.9237 274.241 81.4637 277.051 77.2637C277.601 76.4337 274.961 76.7737 274.761 76.8137C273.721 77.0037 271.991 77.3637 271.351 78.3337C269.331 81.3637 267.171 84.5037 264.241 86.7337C264.021 86.8937 262.711 87.4837 262.651 87.7037C262.721 87.4537 263.611 87.7237 263.201 87.5437C262.991 87.4537 262.551 87.5037 262.331 87.4637C260.881 87.1837 259.601 86.3137 258.561 85.2937C252.771 79.6737 253.111 70.0537 253.431 62.6637C253.581 59.1837 253.791 55.5737 255.051 52.2837C255.571 50.9337 256.281 49.5537 257.381 48.5937C257.471 48.5137 258.001 48.2137 258.051 48.0937C257.991 48.2537 257.171 48.1437 258.091 48.1537C258.871 48.1637 259.631 48.2137 260.401 48.3337C264.001 48.9037 267.321 50.5937 270.121 52.8937C272.651 54.9637 276.461 58.6137 274.781 62.2537C274.131 63.6737 272.971 64.4937 271.461 64.7137C269.221 65.0437 266.921 65.0837 264.661 65.1337C259.531 65.2537 254.401 65.0137 249.301 64.4137C247.951 64.2537 246.481 64.6237 245.261 65.1837C244.871 65.3637 243.201 66.4137 244.521 66.5737V66.5837Z" fill="black"/>
<path d="M260.261 54.8437C260.261 56.1237 260.261 57.3937 260.261 58.6737C260.261 58.9837 260.351 59.2237 260.611 59.4037C260.871 59.5837 261.281 59.6637 261.601 59.6337C261.981 59.5937 262.391 59.4837 262.691 59.2337C262.921 59.0537 263.201 58.7737 263.201 58.4537C263.201 57.1737 263.201 55.9037 263.201 54.6237C263.201 54.3137 263.111 54.0737 262.851 53.8937C262.591 53.7137 262.181 53.6337 261.861 53.6637C261.481 53.7037 261.071 53.8137 260.771 54.0637C260.541 54.2437 260.261 54.5237 260.261 54.8437Z" fill="#1E4CFF"/>
<path d="M354.811 63.0637C359.761 63.5137 364.731 63.7537 369.701 63.7137C374.671 63.6737 379.771 63.7137 384.511 62.3037C386.671 61.6637 389.111 60.7537 390.521 58.8937C391.761 57.2637 391.211 55.3537 389.991 53.9037C387.341 50.7537 383.201 48.7137 379.321 47.5737C374.871 46.2637 369.981 46.1437 365.591 47.7437C361.691 49.1637 359.411 51.9837 358.551 55.9937C357.691 60.0037 357.531 64.4037 357.971 68.4437C358.411 72.4837 359.951 76.3037 363.141 78.8537C367.091 82.0037 372.501 81.3237 376.881 79.5037C381.261 77.6837 384.381 74.4337 387.341 70.9937C387.981 70.2537 385.191 70.5137 385.051 70.5437C383.881 70.7637 382.441 71.1337 381.641 72.0637C379.631 74.4037 377.411 76.8537 374.691 78.3737C374.481 78.4837 373.721 78.8237 373.821 78.8037C373.961 78.7737 374.161 78.8437 373.551 78.8337C373.311 78.8337 373.081 78.8337 372.841 78.8037C371.341 78.6537 369.951 77.9537 368.771 77.0437C363.131 72.6937 363.321 64.6137 363.831 58.2237C364.051 55.4837 364.501 52.4837 366.221 50.2337C366.561 49.7837 366.971 49.4737 367.371 49.0837C367.471 48.9837 367.631 48.9137 367.751 48.8337C367.251 49.1637 367.361 48.9037 367.871 48.8537C369.531 48.6737 371.311 48.9737 372.931 49.3337C376.221 50.0537 379.331 51.5237 382.011 53.5537C383.211 54.4637 384.531 55.4937 385.151 56.9037C385.771 58.3137 385.341 60.0937 383.821 60.7637C382.541 61.3337 380.831 61.2437 379.461 61.3137C377.231 61.4337 374.991 61.4837 372.761 61.4937C368.371 61.5037 363.971 61.3237 359.601 60.9237C358.231 60.8037 356.801 61.1237 355.561 61.6937C355.191 61.8637 353.491 62.9537 354.821 63.0837L354.811 63.0637Z" fill="black"/>
<path d="M192.791 44.2637C196.571 55.9737 199.431 67.9637 201.331 80.1237C201.711 82.5237 207.121 81.2737 207.161 79.0937C207.231 74.5237 207.301 69.9537 207.371 65.3937C207.431 61.6437 207.241 57.7837 207.871 54.0737C208.111 52.6337 208.501 51.2137 209.261 49.9537C209.881 48.9337 210.841 48.1037 211.791 47.9037C212.831 47.6737 214.491 48.0137 215.751 48.4937C217.361 49.1137 218.811 50.1137 220.121 51.2337C221.961 52.8037 227.091 50.1137 224.621 48.0037C219.311 43.4637 210.951 41.8437 205.511 47.1037C200.761 51.7037 201.601 59.6537 201.511 65.6437C201.441 70.2937 201.371 74.9437 201.301 79.5937L207.131 78.5637C205.231 66.4037 202.371 54.4137 198.591 42.7037C197.781 40.1837 191.991 41.7737 192.791 44.2537V44.2637Z" fill="black"/>
<path d="M226.811 46.5137C227.731 57.4837 230.641 68.2037 235.381 78.1337C236.311 80.0837 241.971 78.2437 241.181 76.5837C236.431 66.6537 233.531 55.9337 232.611 44.9637C232.461 43.1337 226.631 44.3537 226.811 46.5137Z" fill="black"/>
<path d="M222.221 30.7637C221.871 34.8337 223.001 38.7137 225.501 41.9437C225.761 42.2837 226.691 42.2837 227.021 42.2737C227.761 42.2537 228.601 42.0737 229.281 41.7937C229.961 41.5137 231.641 40.7637 230.931 39.8437C230.711 39.5637 230.511 39.2837 230.311 38.9837L230.501 39.2637C228.671 36.5037 227.781 33.2037 227.981 29.9037L227.961 30.2337C227.961 30.1137 227.981 30.0037 227.991 29.8837C228.031 29.4437 227.901 29.2437 227.461 29.0737C226.921 28.8637 226.131 28.9137 225.591 29.0137C224.841 29.1437 224.061 29.3437 223.391 29.7237C223.041 29.9237 222.281 30.3037 222.241 30.7637H222.221Z" fill="black"/>
<path d="M285.051 47.8937C288.911 49.9637 290.011 55.2437 290.501 59.1837C291.271 65.4137 291.021 71.8137 290.961 78.0837C290.951 79.4037 292.091 80.0937 293.311 80.1237C294.701 80.1637 296.021 79.5337 296.701 78.2937C298.831 74.3737 298.561 69.9037 298.761 65.5937C298.921 61.9637 299.461 58.2937 300.871 54.9237C301.531 53.3437 302.361 51.8837 303.471 50.5737C303.971 49.9837 304.471 49.5037 305.071 49.0237C305.401 48.7637 306.291 47.9537 306.741 48.0137C306.551 47.9837 307.281 48.6337 307.421 48.8337C307.911 49.5137 308.231 50.2437 308.511 51.0337C309.301 53.2937 309.911 55.6437 310.471 57.9637C311.781 63.3537 312.641 68.8737 313.001 74.4137C313.091 75.8737 314.321 76.5537 315.721 76.4737C316.831 76.4037 318.981 75.4937 318.891 74.0437C318.521 68.3437 317.741 62.6837 316.431 57.1137C315.821 54.5037 315.151 51.8537 314.251 49.3237C313.531 47.3037 312.461 45.3037 310.501 44.2637C305.721 41.7037 300.251 46.1537 297.611 49.9137C295.111 53.4837 293.811 57.7237 293.211 62.0137C292.501 67.0837 293.631 72.8537 291.111 77.5037L296.841 77.7137C296.911 70.8237 297.171 63.7737 296.201 56.9337C295.431 51.5537 293.321 46.4837 288.341 43.8137C285.841 42.4737 281.761 46.1337 285.041 47.9037L285.051 47.8937Z" fill="black"/>
<path d="M345.181 48.6737C340.071 45.7637 334.431 43.5337 328.611 45.7737C323.781 47.6337 320.821 52.4037 320.151 57.4037C319.411 62.9437 322.011 67.4137 326.481 70.5037C330.951 73.5937 336.891 75.1437 342.371 74.2337C347.851 73.3237 353.481 69.9537 355.611 64.4037C356.091 63.1537 353.751 63.0337 353.091 63.1137C351.841 63.2637 350.291 63.8437 349.801 65.1137C348.671 68.0537 345.951 70.3637 343.091 70.9537C339.331 71.7237 335.241 70.2537 332.041 68.2937C328.841 66.3337 326.241 63.2537 325.861 59.3437C325.531 55.8437 326.811 51.1737 329.681 48.9237C330.971 47.9037 332.491 48.1237 334.031 48.5337C336.351 49.1437 338.501 50.3537 340.561 51.5337C341.731 52.2037 343.611 51.6737 344.671 51.0037C345.521 50.4637 346.351 49.3637 345.161 48.6837L345.181 48.6737Z" fill="black"/>
<path d="M244.811 105.004C235.291 115.804 225.771 126.594 216.251 137.394C215.591 138.144 214.791 138.954 213.791 138.914C212.861 138.874 212.151 138.114 211.551 137.404L188.721 110.624L244.811 104.994V105.004Z" fill="#1E4CFF"/>
<path d="M243.631 104.704C236.521 112.774 229.411 120.834 222.291 128.904C220.541 130.894 218.791 132.874 217.041 134.864C216.261 135.744 215.511 136.674 214.681 137.514C214.161 138.044 214.041 137.984 213.491 137.474C213.031 137.054 212.651 136.544 212.241 136.064C208.761 131.974 205.271 127.894 201.791 123.804C197.881 119.214 193.971 114.624 190.061 110.034L188.551 111.514C194.851 110.884 201.141 110.254 207.441 109.614C217.531 108.604 227.611 107.594 237.701 106.574C240.011 106.344 242.321 106.114 244.641 105.874C245.181 105.824 246.191 105.484 246.271 104.824C246.351 104.164 245.471 104.044 244.991 104.094C238.691 104.724 232.401 105.354 226.101 105.994C216.011 107.004 205.931 108.014 195.841 109.034C193.531 109.264 191.221 109.494 188.901 109.734C188.391 109.784 186.721 110.434 187.391 111.214C195.001 120.134 202.501 129.154 210.221 137.994C211.711 139.704 213.681 140.394 215.771 139.154C216.701 138.594 217.391 137.754 218.101 136.944C219.141 135.764 220.181 134.584 221.221 133.404C225.101 128.994 228.991 124.594 232.871 120.184C237.251 115.224 241.621 110.254 246.001 105.294C247.161 103.984 244.361 103.874 243.641 104.694L243.631 104.704Z" fill="#1E4CFF"/>
<path d="M174.161 2.68371C173.061 7.57371 176.211 11.7437 179.851 14.6437C183.861 17.8437 188.931 20.2237 193.941 21.3137C199.321 22.4837 205.031 21.9837 210.141 19.9437C214.721 18.1137 219.351 14.8037 220.711 9.80371C221.311 7.60371 221.271 5.09371 219.921 3.17371C218.751 1.50371 216.961 0.413705 214.951 0.113705C210.221 -0.596295 204.361 2.04371 204.221 7.33371C204.091 12.1637 208.561 15.1537 212.561 16.7237C216.561 18.2937 221.281 19.1637 225.791 19.1137C236.111 18.9837 247.091 15.1237 253.361 6.55371C253.981 5.70371 251.241 5.97371 251.041 6.00371C249.911 6.20371 248.361 6.58371 247.641 7.57371C245.651 10.2837 243.051 12.5637 240.081 14.1537C237.111 15.7437 234.831 16.3237 231.731 16.6237C228.311 16.9537 224.861 16.6637 221.531 15.8337C217.971 14.9537 213.881 13.4837 211.561 10.4737C210.521 9.13371 209.971 7.47371 210.021 5.77371C210.041 5.01371 210.211 4.26371 210.521 3.56371C210.791 2.95371 211.361 2.55371 211.641 2.00371C211.031 3.19371 209.511 2.08371 210.671 2.42371C211.021 2.52371 211.351 2.60371 211.691 2.75371C212.481 3.10371 213.211 3.65371 213.791 4.30371C215.021 5.66371 215.441 7.60371 215.281 9.39371C214.941 13.2437 212.061 16.6737 208.721 18.3837C205.631 19.9737 201.941 19.8137 198.521 19.0437C193.871 17.9937 189.241 15.7537 185.491 12.8137C182.171 10.2037 178.881 6.18371 179.901 1.66371C180.181 0.433705 174.511 1.25371 174.191 2.69371L174.161 2.68371Z" fill="#1E4CFF"/>
</g>
<defs>
<clipPath id="clip0_142_750">
<rect width="391.23" height="139.785" fill="white"/>
</clipPath>
</defs>
</svg>
