<svg width="322" height="116" viewBox="0 0 322 116" fill="none" xmlns="http://www.w3.org/2000/svg">
<path d="M4.96057 43.2241C30.1006 32.3241 56.1106 23.5041 82.7306 16.9941C109.261 10.4941 136.371 6.29405 163.631 4.59405C190.711 2.90405 218.161 3.42405 245.061 7.10405C269.211 10.4041 295.011 18.6841 308.331 40.7441C314.411 50.8041 316.621 62.5341 313.931 74.0341C311.121 86.0541 304.031 96.5941 296.211 105.934C294.201 108.334 292.121 110.674 289.991 112.974C289.081 113.964 290.781 114.254 291.441 114.234C292.721 114.194 294.391 113.754 295.301 112.764C303.871 103.464 312.081 93.3241 316.951 81.5341C321.561 70.3641 322.331 58.0341 317.861 46.6941C313.661 36.0541 305.741 27.0141 296.411 20.5241C285.501 12.9341 272.621 8.78405 259.691 6.22405C246.251 3.56405 232.471 2.42405 218.801 1.67405C205.131 0.924053 190.681 0.784053 176.621 1.33405C148.491 2.43405 120.501 6.15405 93.0206 12.2141C65.4806 18.2841 38.4506 26.7741 12.3506 37.4641C9.16057 38.7641 5.99057 40.1141 2.83057 41.4841C2.22057 41.7541 0.430573 42.5041 1.18057 43.4141C1.85057 44.2341 4.24057 43.5541 4.96057 43.2441V43.2241Z" fill="#1E4CFF" stroke="#1E4CFF" stroke-width="2" stroke-linejoin="bevel"/>
<path d="M112.49 20.94C115.18 30.8 118.57 40.46 122.64 49.84C123.19 51.1 124.85 51.13 126.01 50.82C126.86 50.59 128.97 49.54 128.44 48.29C126.01 42.53 122.51 37.25 118.02 32.88C113.53 28.51 108.25 24.71 101.96 24.61C96.0799 24.52 89.2099 27.7 88.0899 34.04C87.5399 37.12 88.5299 40.25 89.8799 42.99C90.5999 44.44 91.4099 45.85 92.2699 47.22C92.9999 48.37 93.7899 49.54 95.0399 50.17C98.1299 51.74 101.32 50.01 103.83 48.2C104.85 47.47 104.9 47.29 106.22 47.55C107.54 47.81 108.91 48.32 110.16 48.85C114.69 50.76 118.69 53.83 121.9 57.52C128.43 65.02 131.98 75.31 130.52 85.24C130.42 85.91 130.3 86.58 130.16 87.25C130.11 87.47 129.54 89.06 129.58 89.12C129.56 89.09 130.62 88.57 130.66 88.68C130.66 88.69 129.87 88.33 129.86 88.32C129.23 87.99 128.64 87.57 128.11 87.11C125.04 84.45 122.21 81.46 119.28 78.65C113.33 72.95 107.39 67.24 101.44 61.54C100.42 60.56 98.7499 60.72 97.5499 61.27C96.7799 61.62 95.0699 62.98 96.0999 63.97C101.45 69.1 106.8 74.24 112.15 79.37C114.77 81.88 117.38 84.39 120 86.9C122.21 89.02 124.44 91.6 127.55 92.32C131.18 93.16 134.72 91.36 135.75 87.74C136.43 85.34 136.68 82.77 136.7 80.28C136.74 75.24 135.74 70.23 133.77 65.59C129.73 56.08 122.04 48.24 112.25 44.74C108.98 43.57 105.41 42.99 102.19 44.63C100.95 45.26 99.8199 46.11 98.6999 46.93C98.8999 46.78 98.6699 47.21 98.4999 47.03C98.5699 47.1 99.4099 46.61 99.3499 46.93C99.3399 46.99 98.2799 45.79 98.2299 45.72C95.4599 41.76 91.1599 34.23 95.7499 30.02C97.4599 28.46 99.4599 28.13 101.84 28.6C105.13 29.26 108.1 31.28 110.62 33.41C115.84 37.82 119.99 43.53 122.64 49.81L128.44 48.26C124.37 38.88 120.98 29.22 118.29 19.36C117.64 16.97 111.84 18.51 112.49 20.91V20.94Z" fill="black"/>
<path d="M124.27 27.26C130.52 41.62 137.7 55.57 145.75 68.99C148.03 72.8 150.39 76.56 152.82 80.28C154.03 82.13 159.63 80.13 158.17 77.89C147.37 61.31 137.96 43.85 130.06 25.71C129.52 24.47 127.83 24.51 126.71 24.81C125.92 25.02 123.73 26.04 124.26 27.26H124.27Z" fill="black"/>
<path d="M140.01 25.72C139.2 32.8 135.73 39.59 130.16 44.1C129.91 44.3 129.41 44.69 129.52 45.1C129.63 45.51 130.26 45.61 130.58 45.65C131.85 45.8 133.66 45.37 134.68 44.55C140.75 39.64 144.87 32.6 145.76 24.8C145.89 23.68 144.07 23.87 143.37 23.99C142.61 24.12 141.85 24.34 141.17 24.7C140.82 24.89 140.07 25.27 140.01 25.71V25.72Z" fill="black"/>
<path d="M134.46 44.73C134.66 43.48 134.95 42.15 135.67 41.09C135.81 40.89 135.96 40.69 136.13 40.51C135.93 40.71 136.56 40.06 136.36 40.31C136.41 40.25 136.31 40.33 136.33 40.32C136.67 40.23 136.13 40.39 136.11 40.39C135.68 40.49 135.87 40.31 136.02 40.41C136.02 40.41 136.49 40.37 136.14 40.39C135.82 40.41 136.24 40.39 136.27 40.39C136.59 40.4 136.37 40.37 136.81 40.43C137.35 40.51 137.89 40.6 138.42 40.75C139.83 41.15 141.19 41.73 142.5 42.37C145.91 44.03 148.4 46.99 150.97 49.7C153.98 52.87 156.99 56.03 160 59.2C163.35 62.72 166.7 66.25 170.05 69.77C171.28 71.07 176.76 68.98 175.46 67.62C168.64 60.45 161.83 53.28 155.01 46.11C153.53 44.56 152.06 42.97 150.34 41.68C148.79 40.52 147.02 39.65 145.23 38.92C142.12 37.66 138.75 37.03 135.45 37.92C131.58 38.96 129.33 41.68 128.7 45.57C128.39 47.49 134.18 46.48 134.46 44.73Z" fill="black"/>
<path d="M152.94 17.73C158.51 34.46 167.56 49.86 179.4 62.92C180.3 63.91 185.61 61.81 184.88 61.01C173.17 48.09 164.25 32.72 158.74 16.18C158.35 15 152.6 16.71 152.94 17.73Z" fill="black"/>
<path d="M174.12 19.09C185.01 32.01 192.24 47.72 195 64.38L200.8 62.83C199.93 60.75 200.15 58.59 201.32 56.67C201.86 55.78 202.56 54.97 203.39 54.33C203.73 54.07 204.22 53.76 204.53 53.6C204.96 53.38 205.36 53.25 205.66 53.18C207.45 52.74 210.26 53.35 212.28 54.26C214.96 55.46 217.35 57.19 219.53 59.14C220.56 60.06 222.23 59.83 223.4 59.31C224.08 59.01 225.93 57.71 224.89 56.79C219.41 51.9 212.03 47.83 204.47 50.05C198.73 51.73 192.27 57.88 195 64.39C195.89 66.51 201.18 65.15 200.8 62.84C197.99 45.91 190.54 29.86 179.48 16.75C178.08 15.09 172.52 17.2 174.12 19.1V19.09Z" fill="black"/>
<path d="M204.66 16.45C214.85 28.46 222.45 42.47 226.98 57.55C227.56 59.48 233.33 57.9 232.78 56C231.66 52.16 233.37 47.18 237.01 45.65C236.73 45.77 237.12 45.63 237.21 45.61C236.82 45.7 237.73 45.54 237.73 45.54C237.73 45.54 238.41 45.55 238.67 45.58C239.65 45.69 240.58 46.03 241.46 46.47C243.44 47.47 245.01 49.18 245.8 51.26C246.54 53.2 252.27 51.49 251.6 49.71C249.24 43.49 241.87 41.16 235.84 43.04C229.81 44.92 225.12 51.11 226.99 57.56L232.79 56.01C228.18 40.71 220.4 26.42 210.06 14.23C208.82 12.77 203.27 14.81 204.67 16.46L204.66 16.45Z" fill="black"/>
<path d="M248.35 55.43C251.08 58.77 254.46 61.51 258.33 63.43C260.17 64.34 262.13 65.21 264.21 65.28C266.52 65.36 269.64 64.71 271.27 62.94C272.59 61.52 272.41 59.24 272.48 57.43C272.55 55.62 272.57 53.87 272.5 52.08C272.37 48.55 271.92 44.96 270.69 41.63C269.37 38.06 267.04 34.95 263.68 33.1C262.88 32.66 261.53 32.99 260.72 33.21C260.05 33.39 258.33 33.81 258.1 34.6C258.06 34.75 257.12 36.41 257.07 36.3C257.05 36.26 257.74 36.1 257.79 36.08C257.89 36.03 258.29 36.13 257.64 36.1C257.89 36.11 256.89 36.1 257.05 36.1C255.21 36.03 253.5 35.37 251.84 34.63C247.5 32.69 243.5 29.98 240.09 26.67C236.99 23.66 233.04 19.37 233.58 14.67C233.7 13.65 234.08 12.64 234.63 11.78C234.87 11.41 235.15 11.13 235.43 10.8C235.45 10.78 235.78 10.5 235.78 10.5C235.86 10.26 235.63 10.31 235.1 10.65C234.33 10.78 234.18 10.84 234.65 10.83C235 11.09 235.98 11.14 236.43 11.29C237.06 11.51 237.68 11.78 238.3 12.03C239.69 12.59 241.08 13.15 242.47 13.71C248.65 16.2 254.83 18.69 261.01 21.17C262.04 21.59 263.34 21.26 264.36 20.94C265.02 20.73 266.63 20.3 266.64 19.42C266.72 14.69 265.27 10.12 262.48 6.3C261.47 4.92 256.26 7.27 256.68 7.85C259.46 11.67 260.91 16.24 260.84 20.97L266.47 19.21C259.67 16.47 252.88 13.74 246.08 11C242.76 9.66 239.57 8.02 235.89 8.67C233.01 9.18 230.1 10.55 228.66 13.23C225.79 18.55 230.18 24.08 233.75 27.75C237.88 31.99 242.97 35.39 248.52 37.46C251.13 38.43 253.95 38.65 256.69 38.15C259.43 37.65 262.94 36.48 263.8 33.55L258.21 35.05C263.58 38.01 265.67 43.88 266.39 49.66C266.77 52.75 266.8 55.87 266.68 58.97C266.65 59.71 266.62 60.44 266.57 61.18C266.53 61.68 266.5 62.19 266.34 62.67C266.03 63.62 265.12 63.83 266.97 63.29C269.01 62.7 267.98 63 267.23 62.82C266.88 62.74 266.53 62.64 266.19 62.52C265.3 62.2 264.43 61.79 263.59 61.36C259.8 59.45 256.48 56.73 253.8 53.45C252.93 52.39 247.49 54.37 248.34 55.41L248.35 55.43Z" fill="black"/>
</svg>
