<svg width="429" height="117" viewBox="0 0 429 117" fill="none" xmlns="http://www.w3.org/2000/svg">
<path d="M2.43244 3.99323C0.582442 21.7732 4.71244 39.7732 13.9724 55.0532C23.2824 70.4032 37.8524 82.1232 54.6424 88.3932C62.9324 91.4832 71.6824 93.2832 80.5224 93.6532C89.8224 94.0432 99.6024 92.9732 108.112 88.9832C116.072 85.2532 122.942 78.8332 125.442 70.1932C127.492 63.0932 126.062 52.4832 117.542 50.5632C110.462 48.9632 102.482 53.7132 99.7224 60.2332C96.2324 68.4932 101.842 77.7332 107.262 83.6632C119.722 97.2732 137.522 104.673 155.112 109.013C175.682 114.093 197.052 115.123 218.162 114.593C239.552 114.053 260.952 112.293 282.212 109.883C324.952 105.033 367.332 96.8832 408.822 85.5432C414.012 84.1232 419.182 82.6532 424.342 81.1332C425.152 80.8932 427.182 80.1532 426.872 78.9632C426.562 77.7732 424.352 78.1332 423.602 78.3532C385.412 89.5732 346.442 98.0732 307.042 103.713C287.212 106.553 267.282 108.673 247.292 110.063C227.642 111.433 207.852 112.273 188.182 110.663C169.842 109.163 151.072 105.523 134.462 97.3332C126.852 93.5832 119.752 88.7732 113.832 82.6632C108.392 77.0532 102.372 68.4532 105.232 60.2132C106.172 57.4932 108.472 54.6632 111.282 53.7232C114.542 52.6332 117.562 55.3532 118.932 58.0932C122.602 65.4432 119.552 74.4432 114.472 80.2932C108.752 86.8732 100.112 89.5332 91.6924 90.3032C83.2724 91.0732 74.7924 90.1332 66.6924 88.0132C50.6624 83.8232 36.0024 74.4932 25.5624 61.6232C15.0424 48.6532 8.86244 32.2732 7.92244 15.6132C7.69244 11.4832 7.81244 7.35323 8.23244 3.24323C8.46244 1.01323 2.64244 2.10323 2.44244 4.00323H2.43244V3.99323Z" fill="#1E4CFF" stroke="#1E4CFF" stroke-width="4" stroke-linejoin="bevel"/>
</svg>
