<svg width="122" height="336" viewBox="0 0 122 336" fill="none" xmlns="http://www.w3.org/2000/svg">
<path d="M121.717 336C120.937 335.903 76.707 335.994 61 336C45.293 335.994 1.0628 335.903 0.283144 336C-0.312548 317.56 -1.81931 281.677 18.754 276.067C19.4986 275.983 20.1907 273.182 19.7088 273.654C17.5276 271.034 16.2705 267.973 16.6822 263.787C16.9144 260.714 19.8622 262.596 21.2813 262.111C21.3821 261.865 21.4083 261.801 21.5091 261.548C21.2288 260.655 21.6449 259.31 20.6199 258.902C19.1482 258.32 19.7658 256.527 19.814 255.24C19.9804 252.846 22.8056 254.153 23.9707 253.7C23.9882 252.652 24.0101 251.61 24.0276 250.562C23.1648 250.083 22.2668 249.863 22.3282 247.877C22.4026 245.509 23.5239 246.201 24.3518 246.078C27.5229 244.927 21.9339 242.086 26.4542 239.899C30.4488 237.376 25.1227 238.049 26.7696 233.662C28.4559 229.159 36.8613 226.571 34.7194 223.847C32.3498 223.265 35.337 220.295 31.6271 220.198C30.0021 220.159 29.9145 218.684 30.4269 216.898C43.3307 193.295 32.9762 150.579 51.8062 143.177C51.8062 141.942 52.9538 142.841 51.8018 138.985C49.8702 138.629 49.0248 138.357 49.0993 136.183C49.2351 132.198 51.8193 134.456 51.3594 127.345C50.9302 127.28 50.733 126.077 50.295 126.019C49.822 123.799 48.7182 122.505 51.4426 122.104C53.913 120.733 50.6192 111.086 54.0663 109.733C54.1276 109.792 54.189 109.856 54.2459 109.921C54.4123 109.895 54.5788 109.869 54.754 109.85C54.5218 109.85 54.2897 109.779 54.0663 109.733C54.0926 105.534 54.1495 101.335 54.1452 97.136C54.1452 95.7967 54.224 94.7291 55.4154 94.8391C55.4548 94.4315 55.4942 94.0303 55.5293 93.6292C55.5336 93.6292 55.538 93.6292 55.5424 93.6227H55.6212C55.9585 90.9505 54.5393 85.1986 56.8039 84.2928C58.6128 82.5717 55.9716 75.4481 58.8056 72.9054C59.4801 72.1742 58.7618 70.9837 57.8157 71.029C56.852 71.0743 56.6287 70.5179 56.7163 69.0686C58.0215 46.8178 59.191 24.5541 60.3649 2.28395C60.4131 1.43637 60.1722 0.0582311 61 0C61.8278 0.0582311 61.5869 1.43637 61.6351 2.28395C62.809 24.5541 63.9785 46.8178 65.2837 69.0686C65.3713 70.5179 65.1479 71.0743 64.1843 71.029C63.2382 70.9837 62.5199 72.1742 63.1944 72.9054C66.0283 75.4481 63.3872 82.5717 65.1961 84.2928C67.4606 85.1986 66.0415 90.9505 66.3788 93.6227H66.4576C66.4576 93.6227 66.4663 93.6292 66.4707 93.6292C66.5058 94.0303 66.5452 94.4315 66.5846 94.8391C67.776 94.7291 67.8592 95.7967 67.8548 97.136C67.8505 101.335 67.9074 105.534 67.9337 109.733C67.7103 109.779 67.4782 109.843 67.246 109.85C67.4212 109.869 67.5876 109.895 67.7541 109.921C67.811 109.856 67.8724 109.792 67.9337 109.733C71.3808 111.086 68.087 120.733 70.5574 122.104C73.2818 122.505 72.178 123.799 71.7049 126.019C71.2669 126.077 71.0698 127.28 70.6406 127.345C70.1807 134.456 72.7649 132.198 72.9007 136.183C72.9752 138.357 72.1298 138.629 70.1982 138.985C69.0462 142.841 70.1938 141.942 70.1938 143.177C89.0238 150.579 78.6693 193.295 91.573 216.898C92.0855 218.684 91.9979 220.159 90.3729 220.198C86.663 220.295 89.6502 223.265 87.2805 223.847C85.1387 226.571 93.5441 229.159 95.2304 233.662C96.8773 238.049 91.5511 237.376 95.5458 239.899C100.066 242.086 94.477 244.927 97.6482 246.078C98.4761 246.201 99.5974 245.509 99.6718 247.877C99.7331 249.863 98.8352 250.083 97.9724 250.562C97.9899 251.61 98.0118 252.652 98.0293 253.7C99.1944 254.153 102.02 252.846 102.186 255.24C102.234 256.527 102.852 258.32 101.38 258.902C100.355 259.31 100.771 260.655 100.491 261.548C100.592 261.801 100.618 261.865 100.719 262.111C102.138 262.596 105.086 260.714 105.318 263.787C105.729 267.973 104.472 271.034 102.291 273.654C101.809 273.182 102.501 275.983 103.246 276.067C123.819 281.677 122.313 317.56 121.717 336Z" fill="#BFB5CB"/>
</svg>
