<?xml version="1.0" encoding="UTF-8"?>
<svg id="Layer_2" xmlns="http://www.w3.org/2000/svg" viewBox="0 0 277.36 384.24">
  <defs>
    <style>
      .cls-1 {
        fill: #bfb5cb;
      }
    </style>
  </defs>
  <g id="Layer_1-2" data-name="Layer_1">
    <path class="cls-1" d="M275.72,334.78c-5.11-11.43-5.51-14.28-15.33-19.93-11.56-6.64-56.96-13.65-56.96-13.65,0,0,10.29-1.88,15.66-24.6,5.37-22.72-4.07-75.68-4.07-75.68-1.34-9.3-4.94-16.03-8.51-20.63-3.64-4.7-8.69-8.1-14.38-9.8-6.66-1.99-17.61-5.26-23.55-7.06-8.55-2.6-10.48-10-10.17-16.73.32-6.73,2.13-6.86,2.13-6.86,4.07,12.01,8,10.94,8,10.94,4.3.09,3.26-2.87,1.63-10.54-1.64-7.68,1.89-16.32,1.89-16.32,0,0,5-9.9,6.73-17.63,1.72-7.72-3.76-7.22-3.76-7.22-1.74-.86-1.26-10.16-1.26-10.16-.07-30.48-17.49-34.61-17.49-34.61-2.82-1.84-3.15-3.61-3.15-6.72s-3.24-2.85-3.24-2.85c3.2-7.08-1.34-16.96-1.34-16.96L138.92.23l-.08-.23-.08.23-9.63,27.54s-4.54,9.88-1.34,16.96c0,0-3.24-.27-3.24,2.85s-.33,4.88-3.15,6.72c0,0-17.42,4.13-17.49,34.61,0,0,.48,9.3-1.26,10.16,0,0-5.48-.5-3.76,7.22,1.73,7.73,6.73,17.63,6.73,17.63,0,0,3.53,8.64,1.89,16.32-1.63,7.67-2.67,10.63,1.63,10.54,0,0,3.93,1.07,8-10.94,0,0,1.81.13,2.13,6.86.31,6.73-1.62,14.13-10.17,16.73-5.94,1.8-16.89,5.07-23.55,7.06-5.69,1.7-10.74,5.1-14.38,9.8-3.57,4.6-7.17,11.33-8.51,20.63,0,0-9.44,52.96-4.07,75.68,5.37,22.72,15.66,24.6,15.66,24.6,0,0-45.4,7.01-56.96,13.65-9.82,5.65-10.22,8.5-15.33,19.93-5.11,11.43-1.06,49.46,22.27,49.46h226.83c23.33,0,29.77-38.03,24.66-49.46ZM104.4,266.88c-2.07,20.59-8.56,22.67-8.56,22.67l-9.71-8.14c-5.97-3.69-4.09-15.42-2.24-28.41,1.84-12.98,10.74-33.89,10.74-33.89,5.64,8.08,11.85,27.17,9.77,47.77ZM191.55,281.41l-9.71,8.14s-6.49-2.08-8.56-22.67c-2.08-20.6,4.13-39.69,9.77-47.77,0,0,8.9,20.91,10.74,33.89,1.85,12.99,3.73,24.72-2.24,28.41Z"/>
  </g>
</svg>