<svg width="95" height="262" viewBox="0 0 95 262" fill="none" xmlns="http://www.w3.org/2000/svg">
<path d="M94.7615 261.632C94.1545 261.557 59.7195 261.627 47.491 261.632C35.2624 261.627 0.827434 261.557 0.220439 261.632C-0.243332 247.274 -1.41641 219.332 14.6007 214.964C15.1805 214.899 15.7192 212.718 15.3441 213.085C13.6459 211.045 12.6672 208.662 12.9878 205.402C13.1685 203.009 15.4635 204.475 16.5684 204.097C16.6468 203.906 16.6673 203.856 16.7457 203.659C16.5275 202.964 16.8514 201.916 16.0534 201.598C14.9077 201.145 15.3885 199.749 15.426 198.747C15.5556 196.883 17.7551 197.901 18.6622 197.548C18.6758 196.732 18.6929 195.921 18.7065 195.104C18.0347 194.732 17.3356 194.56 17.3834 193.014C17.4414 191.17 18.3143 191.709 18.9588 191.613C21.4277 190.716 17.0765 188.505 20.5957 186.802C23.7057 184.837 19.559 185.361 20.8412 181.945C22.1541 178.438 28.698 176.423 27.0305 174.302C25.1856 173.849 27.5113 171.536 24.623 171.461C23.3578 171.43 23.2896 170.282 23.6886 168.891C33.7347 150.512 25.6733 117.251 40.3332 111.488C40.3332 110.525 41.2267 111.226 40.3298 108.223C38.826 107.946 38.1678 107.734 38.2258 106.041C38.3315 102.938 40.3434 104.696 39.9854 99.1593C39.6512 99.109 39.4977 98.1719 39.1567 98.1265C38.7884 96.3985 37.9291 95.3909 40.0502 95.0785C41.9735 94.0104 39.4091 86.4987 42.0928 85.4457C42.1406 85.4911 42.1883 85.5414 42.2326 85.5918C42.3622 85.5717 42.4918 85.5515 42.6282 85.5364C42.4475 85.5364 42.2667 85.481 42.0928 85.4457C42.1133 82.176 42.1576 78.9063 42.1542 75.6366C42.1542 74.5937 42.2156 73.7624 43.1431 73.8481C43.1738 73.5307 43.2045 73.2183 43.2318 72.906C43.2352 72.906 43.2386 72.9059 43.242 72.9009H43.3034C43.566 70.8202 42.4611 66.3413 44.2241 65.636C45.6325 64.2959 43.5762 58.749 45.7825 56.769C46.3077 56.1997 45.7484 55.2727 45.0118 55.308C44.2616 55.3432 44.0877 54.91 44.1559 53.7814C45.1721 36.4555 46.0826 19.1195 46.9965 1.77844C47.034 1.11845 46.8465 0.0453427 47.491 0C48.1355 0.0453427 47.9479 1.11845 47.9854 1.77844C48.8993 19.1195 49.8098 36.4555 50.826 53.7814C50.8943 54.91 50.7203 55.3432 49.9701 55.308C49.2335 55.2727 48.6743 56.1997 49.1994 56.769C51.4058 58.749 49.3495 64.2959 50.7578 65.636C52.5209 66.3413 51.416 70.8202 51.6786 72.9009H51.7399C51.7399 72.9009 51.7468 72.906 51.7502 72.906C51.7774 73.2183 51.8081 73.5307 51.8388 73.8481C52.7664 73.7624 52.8312 74.5937 52.8278 75.6366C52.8244 78.9063 52.8687 82.176 52.8891 85.4457C52.7152 85.481 52.5345 85.5314 52.3538 85.5364C52.4902 85.5515 52.6197 85.5717 52.7493 85.5918C52.7937 85.5414 52.8414 85.4911 52.8891 85.4457C55.5729 86.4987 53.0085 94.0104 54.9318 95.0785C57.0529 95.3909 56.1935 96.3985 55.8252 98.1265C55.4842 98.1719 55.3308 99.109 54.9966 99.1593C54.6385 104.696 56.6505 102.938 56.7562 106.041C56.8141 107.734 56.156 107.946 54.6522 108.223C53.7553 111.226 54.6487 110.525 54.6487 111.488C69.3087 117.251 61.2472 150.512 71.2933 168.891C71.6923 170.282 71.6241 171.43 70.359 171.461C67.4706 171.536 69.7963 173.849 67.9515 174.302C66.2839 176.423 72.8279 178.438 74.1408 181.945C75.423 185.361 71.2763 184.837 74.3863 186.802C77.9055 188.505 73.5542 190.716 76.0231 191.613C76.6676 191.709 77.5406 191.17 77.5986 193.014C77.6463 194.56 76.9473 194.732 76.2755 195.104C76.2891 195.921 76.3062 196.732 76.3198 197.548C77.2269 197.901 79.4264 196.883 79.556 198.747C79.5935 199.749 80.0743 201.145 78.9285 201.598C78.1306 201.916 78.4545 202.964 78.2363 203.659C78.3147 203.856 78.3352 203.906 78.4136 204.097C79.5185 204.475 81.8134 203.009 81.9942 205.402C82.3147 208.662 81.336 211.045 79.6378 213.085C79.2627 212.718 79.8015 214.899 80.3812 214.964C96.3984 219.332 95.2253 247.274 94.7615 261.632Z" fill="#BFB5CB"/>
</svg>
