<?xml version="1.0" encoding="UTF-8"?>
<svg id="Layer_2" xmlns="http://www.w3.org/2000/svg" viewBox="0 0 278.53 516.04">
  <defs>
    <style>
      .cls-1 {
        fill: #bfb5cb;
      }
    </style>
  </defs>
  <g id="Layer_1-2" data-name="Layer_1">
    <path class="cls-1" d="M278.03,516.04H.49c-1.4-29.27-2.91-81.01,42.32-89.36,1.7-.13,3.28-4.46,2.18-3.73-4.98-4.05-7.85-8.78-6.91-15.25.53-4.75,7.26-1.84,10.5-2.59.23-.38.29-.48.52-.87-.64-1.38.31-3.46-2.03-4.09-3.36-.9-1.95-3.67-1.84-5.66.38-3.7,6.83-1.68,9.49-2.38.04-1.62.09-3.23.13-4.85-1.97-.74-4.02-1.08-3.88-4.15.17-3.66,2.73-2.59,4.62-2.78,7.24-1.78-5.52-6.17,4.8-9.55,9.12-3.9-3.04-2.86.72-9.64,3.85-6.96,23.04-10.96,18.15-15.17-5.41-.9,1.41-5.49-7.06-5.64-3.71-.06-3.91-2.34-2.74-5.1,29.46-36.48,5.82-102.5,48.81-113.94,0-1.91,2.62-.52-.01-6.48-4.41-.55-6.34-.97-6.17-4.33.31-6.16,6.21-2.67,5.16-13.66-.98-.1-1.43-1.96-2.43-2.05-1.08-3.43-3.6-5.43,2.62-6.05,5.64-2.12-1.88-17.03,5.99-19.12.14.09.28.19.41.29.38-.04.76-.08,1.16-.11-.53-.01-1.06-.11-1.57-.18.06-6.49.19-12.98.18-19.47-.01-2.07.18-3.72,2.9-3.55.09-.63.18-1.25.26-1.87.01,0,.02,0,.03-.01h.18c.77-4.13-2.47-13.02,2.7-14.42,4.13-2.66-1.9-13.67,4.57-17.6,1.54-1.13-.1-2.97-2.26-2.9-2.2.07-2.71-.79-2.51-3.03,2.98-34.39,5.65-68.8,8.33-103.22.11-1.31-.44-3.44,1.45-3.53,1.89.09,1.34,2.22,1.45,3.53,2.68,34.42,5.35,68.83,8.33,103.22.2,2.24-.31,3.1-2.51,3.03-2.16-.07-3.8,1.77-2.26,2.9,6.47,3.93.44,14.94,4.57,17.6,5.17,1.4,1.93,10.29,2.7,14.42h.18s.02.01.03.01c.08.62.17,1.24.26,1.87,2.72-.17,2.91,1.48,2.9,3.55-.01,6.49.12,12.98.18,19.47-.51.07-1.04.17-1.57.18.4.03.78.07,1.16.11.13-.1.27-.2.41-.29,7.87,2.09.35,17,5.99,19.12,6.22.62,3.7,2.62,2.62,6.05-1,.09-1.45,1.95-2.43,2.05-1.05,10.99,4.85,7.5,5.16,13.66.17,3.36-1.76,3.78-6.17,4.33-2.63,5.96-.01,4.57-.01,6.48,42.99,11.44,19.35,77.46,48.81,113.94,1.17,2.76.97,5.04-2.74,5.1-8.47.15-1.65,4.74-7.06,5.64-4.89,4.21,14.3,8.21,18.15,15.17,3.76,6.78-8.4,5.74.72,9.64,10.32,3.38-2.44,7.77,4.8,9.55,1.89.19,4.45-.88,4.62,2.78.14,3.07-1.91,3.41-3.88,4.15.04,1.62.09,3.23.13,4.85,2.66.7,9.11-1.32,9.49,2.38.11,1.99,1.52,4.76-1.84,5.66-2.34.63-1.39,2.71-2.03,4.09.23.39.29.49.52.87,3.24.75,9.97-2.16,10.5,2.59.94,6.47-1.93,11.2-6.91,15.25-1.1-.73.48,3.6,2.18,3.73,45.23,8.35,43.72,60.09,42.32,89.36Z"/>
  </g>
</svg>