<svg width="237" height="431" viewBox="0 0 237 431" fill="none" xmlns="http://www.w3.org/2000/svg">
<path d="M236.853 411.53C235.083 410.26 233.063 410.54 231.083 410.54C222.463 410.53 213.843 410.46 205.233 410.56C201.503 410.61 199.263 409.41 198.933 405.32C198.083 394.93 197.053 384.56 196.113 374.18C195.173 363.96 194.303 353.74 193.313 343.54C192.933 339.58 191.513 334.43 192.833 331.91C194.953 327.89 193.473 325.4 192.603 322.2C192.483 321.76 193.253 321.1 193.573 320.52C194.373 319.12 194.603 317.43 193.753 316.22C189.753 310.51 190.373 303.98 189.923 297.54C188.483 276.41 186.733 255.29 185.183 234.16C184.373 223.09 183.813 212.01 183.023 200.94C181.443 178.81 179.773 156.69 178.153 134.57C177.403 124.16 177.023 113.72 175.853 103.36C175.003 95.82 174.923 88.63 177.613 81.36C181.133 71.88 183.803 62.09 187.393 52.64C189.233 47.78 188.743 41.5 194.703 38.68C195.133 38.48 195.143 37.16 195.163 36.37C195.223 33.02 196.143 29.84 196.863 26.61C198.843 17.69 203.263 9.69 207.013 0C199.873 4.86 194.373 9.6 189.703 15.4C184.133 22.33 170.523 22.49 165.003 15.43C162.553 12.29 161.303 12.43 158.493 14.8C146.173 25.18 131.363 23.5 121.623 10.65C119.273 7.54 118.203 7.31 115.633 10.62C108.143 20.3 98.5633 23.62 88.6233 20.36C84.2033 18.91 80.1833 16.52 76.6233 13.47C75.0233 12.1 74.0633 11.98 72.9733 14.12C70.7633 18.43 66.4233 19.69 62.2033 20.37C55.7733 21.4 49.9433 20.94 46.0233 14.07C42.8533 8.49 37.2333 5.1 31.2033 1.05C31.5033 4.55 32.6133 6.54 33.5733 8.6C36.8633 15.68 39.6033 22.94 41.2033 30.63C42.0133 34.51 41.0433 39.23 45.8333 41.59C46.5933 41.96 46.7233 43.65 47.0933 44.75C50.5333 54.96 53.7133 65.27 57.4533 75.36C61.0433 85.02 62.1533 94.57 61.2033 105.01C59.1033 127.91 57.9033 150.91 56.0333 173.85C54.1333 197.11 52.6033 220.41 51.0033 243.7C49.5533 264.68 48.2133 285.67 46.8933 306.65C46.7633 308.73 46.1133 310.51 45.1533 312.29C43.5033 315.36 43.3833 318.23 43.7933 321.97C44.1533 325.32 44.3833 329.22 44.2233 332.77C43.5833 346.82 42.1533 360.82 40.9333 374.84C40.0633 384.89 38.9533 394.92 38.1833 404.98C37.8533 409.3 35.6633 410.62 31.6833 410.57C22.9033 410.45 14.1133 410.66 5.33332 410.47C1.58332 410.39 -0.276683 411.44 0.033317 415.52C0.283317 418.83 0.253317 422.18 0.043317 425.49C-0.196683 429.22 1.39332 430.4 4.99332 430.4C80.7433 430.33 156.483 430.35 232.223 430.35C234.063 430.35 235.933 430.49 237.003 428.51C236.953 422.85 236.903 417.19 236.853 411.53ZM75.7633 58.94C75.9533 54.14 76.2833 49.34 76.8533 44.58C77.3633 40.28 80.7133 39.65 84.2333 39.64C96.8233 39.61 109.413 39.64 122.003 39.64C132.273 39.64 142.543 39.59 152.813 39.66C158.553 39.7 160.073 41.37 160.353 47.05C160.563 51.18 160.883 55.31 161.373 59.41C161.943 64.17 159.663 65.51 155.323 65.46C143.063 65.32 130.803 65.41 118.543 65.41C106.283 65.41 94.3533 65.43 82.2633 65.4C76.1733 65.4 75.5233 64.82 75.7633 58.95V58.94ZM175.133 410.63H61.8033C54.4433 410.63 53.4533 409.9 53.9033 402.7C54.9933 385.53 56.4233 368.38 57.6433 351.21C58.0533 345.43 57.9333 339.63 58.6833 333.85C59.0333 331.18 59.3533 328.96 63.3233 327.52C58.5333 325.5 55.9633 323.5 60.2633 319.68C61.1733 318.87 61.1733 317.35 60.7333 316.36C56.2433 306.3 60.3433 296.05 60.0933 285.9C59.9233 279.17 61.2933 272.41 61.7433 265.64C63.1833 243.67 64.4733 221.69 65.9133 199.71C67.1533 180.89 68.5033 162.07 69.8633 143.25C71.4433 121.46 73.1433 99.68 74.6633 77.89C74.8833 74.82 75.8633 73.35 79.0933 73.35C105.433 73.41 131.783 73.4 158.123 73.36C161.033 73.36 162.193 74.61 162.383 77.54C163.643 97.36 164.953 117.18 166.383 137C168.233 162.74 170.293 188.48 172.113 214.23C173.313 231.08 174.203 247.94 175.303 264.8C176.233 279 177.273 293.2 178.253 307.4C178.423 309.74 178.273 312 177.103 314.15C175.803 316.52 175.653 318.92 177.843 320.97C179.843 322.86 179.393 324.46 177.213 325.74C175.193 326.93 175.433 327.71 177.013 329.4C179.573 332.14 178.623 336.1 178.893 339.39C180.603 360.34 181.923 381.33 183.153 402.32C183.603 409.95 182.703 410.63 175.133 410.63Z" fill="#BFB5CB"/>
</svg>
