<?xml version="1.0" encoding="UTF-8"?>
<svg id="Layer_2" xmlns="http://www.w3.org/2000/svg" viewBox="0 0 527.24 267.3">
  <defs>
    <style>
      .cls-1 {
        fill: #bfb5cb;
      }
    </style>
  </defs>
  <g id="Layer_1-2" data-name="Layer_1">
    <path class="cls-1" d="M526.78,172.89c-3.8-2.48-2.3-6.17-2.57-9.44-.15-1.79-.59-3.41-1.19-5.15-1.44-4.22-2.31-9.26.35-12.94,5.12-7.07,1.86-12.88-.92-19.59-2.43,2.09-2.31,4.28-2.22,6.4.15,3.81-.78,7.5-3.16,10.26-1.87,2.17-4.95.18-7.48.23-11.29.23-22.59.08-33.89.11-3.32.01-6.11-1.63-3.83-4.64,5.14-6.79,1.62-12.6-.58-19.59-2.61,4.36-2.06,8.68-3.31,12.52-1.07,3.31-2.54,5.12-6.71,4.87-7.01-.41-14.08,0-21.12.36-5.96.31-10.07-1.07-10.45-5.13-.57-5.98-1.86-12.12,1.15-18.04,2.56-5.03.51-14.74-3.63-17.61,0,2.54.31,4.91-.06,7.16-1.13,6.79-3.74,12.84-12.46,12.26-11.11-.74-22.3-.26-33.46-.14-4.19.04-6.08-1.59-6.03-5.9.12-10.82.03-21.64.04-32.46,0-1.33.05-2.59.77-3.84,4.54-7.94,4.35-10.85-1.44-19.62-.13,5.13-1.81,9.42-3.13,13.82-1.1,3.66-3.24,5.04-6.92,5.02-13.99-.08-27.97-.11-41.96.02-3.18.03-4.35-.9-4.4-4.23-.11-8.12.78-16.26-.78-24.38-.51-2.7.36-5.65,2.03-8.01,4.48-6.32,4.31-13.53-.98-20.12.16,4.78-.74,8.99-2.45,12.93-1.44,3.32-2.96,7.45-7.16,7.54-11.25.23-22.59,1.25-33.69-1.72-5.12-10.36-8.16-21.48-11.84-33.84-4.03,12.23-6.89,23.42-11.99,33.78-1.49.67-2.59,2.03-4.47,2.01-8.16-.08-16.33.23-24.48-.17-4.39-.21-9.77-.89-10.71-6.21-.65-3.72-3.45-7.35-1.49-11.51.4-.85-.05-2.14-1.23-2.37-.96-.2-1.37.72-1.58,1.55-1.6,6.17-5.95,12.48.9,18.25.96.8.96,2.06,1.17,3.21,1.82,9.58.68,19.24.65,28.86-.01,3.36-2.55,4.48-5.96,4.44-13.32-.15-26.65-.21-39.97.01-5.27.09-8.1-2.04-9.03-7.12-.8-4.44-1.75-8.84-2.64-13.26-2.39,7.25-7,14.33-.67,21.58.63.73.48,2.24.48,3.39.03,11.16-.08,22.32.08,33.48.05,3.76-1.49,4.93-5.07,4.88-11.16-.14-22.36-.58-33.47.11-10.48.65-12-5.21-13.5-13.33-.32-1.74.81-3.85-1.34-5.56-2.03,4.89-5.27,9.59-3.03,14.46,2.81,6.1,2.32,12.26,2.36,18.5.03,5.45-1.2,6.38-6.76,6.83-7.05.57-14.1.74-21.18.78-6.81.04-8.9-1.46-11.76-7.94-1.23-2.78-.45-5.12-.34-7.68.06-1.21-.23-2.41-1.65-2.69-.81-.16-1.03.59-1.23,1.25-1.76,5.92-4.85,11.55-.38,17.94,2.86,4.06,1.76,5.26-3.54,5.27-12.49.04-24.99-.13-37.48.13-2.94.07-3.99-.23-5.14-3.33-1.36-3.64-2.72-7.05-2.52-10.97.05-.95.13-2.22-1.25-2.27-.88-.03-1.46.82-1.56,1.69-.65,5.65-2.63,11.13.69,16.9,2.34,4.07,1.69,9.02.38,13.56-1.73,6.02-3.04,12.31-3.84,18.33-1.4,10.47-.43,21.27-.38,31.93.03,5.01.95,5.59,6.07,4.17,3.64-.34,3.93,1.98,3.92,4.74-.06,14.37-.06,28.73-.08,43.09h0c-2.6.3-4.15,3.03-6.9,3v3.59h513.88v-10.52s-.01-.04-.01-.06c0-1.99-.01-3.99-.01-5.98-.02-11.33-.04-22.65-.06-33.97,0-2.02-.31-4.27,2.91-3.85h.03c5.99,1.46,7.05.77,7.07-4.74.02-10.49.02-20.98-.01-31.47,0-1.31.28-3.38-.4-3.82ZM184.27,258.13h-17c-.06-19.91-.11-39.84-.17-59.76.03-4.48.07-8.97.1-13.46.03-.72.06-1.45.09-2.18-.05-5.61-.09-11.23-.13-16.84.02-.74.03-1.47.05-2.21.04-1.63.08-3.26.12-4.88.91.06,1.79-.05,2.62-.49.16-.18.32-.35.48-.52,3.87,2.08,7.28-.89,10.62-1.7,1.3-.32,2.3-.6,3.26-.53v2.48c-.23.5-.29,1.07-.17,1.67.04.19.09.35.16.48v1.65c-.87.21-1.56.78-1.61,1.9-.05,1.19.64,2.11,1.6,2.44h0c-.01.8-.01,1.57-.01,2.36v1.37c-.6.18-1.11.52-1.46,1.19-.87,1.7.23,2.76,1.47,3.7,0,4.29.01,8.59.02,12.88.04,22.68.11,45.36-.14,68.04-.01.92.02,1.72.1,2.41ZM210.32,151.18h0c-.66,1.2-.88,2.46-.08,3.31h0c0,.83.01,1.65.01,2.47-1.03.31-1.75,1.03-1.64,2.55.09,1.21.76,1.79,1.64,2.05.01,1.33.02,2.66.01,4-1.78.74-1.78,2.22-.23,4.85h0c-.14.07-.27.16-.41.26-2.5,2.58-1.99,5.87-2,8.98-.05,24.1-.02,48.21-.03,72.32,0,1.83.01,3.66-.13,5.49-.02.24-.05.46-.09.67h-10.03c.08-.65.11-1.4.1-2.26-.25-27.01-.2-54.01-.17-81.02h.02c.22-.08.44-.17.66-.26h.01c.09-.04.18-.08.27-.11.57-2.2.3-3.65-.95-4.33v-4.03c.74-.42,1.15-1.18,1.11-2.35-.04-1.02-.48-1.55-1.11-1.81h0c0-1.42,0-2.84,0-4.25v-.02c.26-1.18.54-2.43,0-3.45v-1.87c-.06-.05-.12-.09-.18-.13,2.71-.79,6-1.49,6.59-1.12,3.22,2.01,4.59-2.48,6.91-1.98-.14.65-.22,1.33-.28,2.04ZM289.31,201.5c-.46,1.25-.65,2.57-.66,3.91-.13,14.67-.1,45.38-.12,52.72.01.02.01.05,0,.07-17.25.08-34.51.11-51.76-.07.08-.35.13-.71.13-1.07-.12-18.51.49-37.01-.36-55.52-.07-.63-.21-1.25-.17-1.87,17.87.05,35.74.09,53.62.14-.16.59-.46,1.13-.68,1.69ZM289.27,187.45s-.02.09-.02.13c-2.64.04-1.21,4.08-3.76,4.94.96-4.98-1.84-4.93-5.29-4.87-10.8.19-21.6.06-32.4.11-3.36.01-7.67-1.49-7.25,5.12-1.86-1.8-.66-5.31-3.46-5.18-.01-.06-.01-.12-.02-.18-2.83-9.2-1.44-12.92,7.33-17.3,5.45-2.71,10.31-5.96,14.28-10.59,1.68-1.97,2.46-4.58,4.47-6.65,4.66,7.78,10.75,13.28,18.65,17.11,8.42,4.08,9.76,7.91,7.47,17.36ZM329.19,155.81l.03,1.67h0c.03,1.39.05,2.78.06,4.16-.83.29-1.36.98-1.34,2.45.02,1.33.56,2,1.36,2.31.01,1.18.01,2.35,0,3.53-1.99.52-2.41,1.99-.99,4.51h.07c.31-.16.61-.3.91-.42.01.15.01.3,0,.44-.01,3.68-.03,7.36-.03,11.04,0,23.67-.02,47.34.03,71.01,0,.51-.03,1.06-.05,1.62h-11.25c.05-32.43.04-75.81-.02-104.78,0-1.06.01-2.15-.08-3.21,1.3.43,2.52.96,4.09,1.12,2.44.24,4.98.72,7.5,1.19-.15.55-.24,1.19-.28,1.93h0c-.02.45-.02.92-.01,1.43ZM360.23,198.66c0,19.82-.01,39.64-.01,59.47h-17.97c-.01-27.38-.01-54.79-.02-82.18.01-.01.01-.02,0-.03.01-.37.01-.75,0-1.13.01-.04.01-.08,0-.13l.06.06c1.55-2.25,1.79-3.92-.06-4.62v-3.72c.61-.28,1.04-.87,1.09-2.1.05-1.37-.4-2.02-1.09-2.33v-6.61c3.21-.83,6.08,2.49,9.31,2.52,1.58.02,3.12.35,4.67-.06.23.18.45.36.67.55.7.51,1.44.86,2.29.85.05,1.5.11,3,.16,4.49-.11.7-.21,1.4-.32,2.09-1.26,6.36-1.48,12.7.31,19.01.15,4.63-1.39,9.37.91,13.86h0Z"/>
  </g>
</svg>