<?xml version="1.0" encoding="UTF-8"?>
<svg id="Layer_2" xmlns="http://www.w3.org/2000/svg" viewBox="0 0 300 406.49">
  <defs>
    <style>
      .cls-1 {
        fill: #bfb5cb;
      }
    </style>
  </defs>
  <g id="Layer_1-2" data-name="Layer_1">
    <path class="cls-1" d="M300,375.05s-4.22-.37-6.06,5.81c-1.84,6.18-4.44,6.34-4.44,6.34l1.68,1.33c.51,6-3.68,7.84-3.68,7.84-3.98-.53-5,2.56-5,2.56-.68,3.73-3.46,2.91-3.46,2.91-9.26-2.32-16.62,4.65-16.62,4.65h-112.62v-.12H37.58s-7.36-6.97-16.62-4.65c0,0-2.78.82-3.46-2.91,0,0-1.02-3.09-5-2.56,0,0-4.19-1.84-3.68-7.84l1.68-1.33s-2.6-.16-4.44-6.34c-1.84-6.18-6.06-5.81-6.06-5.81,0,0,9.82-3.05,17.43,8.81,0,0,3.51,6.25,11.93,3.35,8.42-2.9,22.2-1.86,30.16,6.77,0,0,2.76,1.47,9.66-7.44l8.02-12.92c2.42-6.7,14.33-19.66,15.88-21.95,1.55-2.29,1.02-5.07,1.02-5.07,0,0,5.44-9.44,6.66-11.6,1.22-2.16-1.66-2.84-1.66-2.84-4.75-1.76-1.59-3.6-1.59-3.6,17.61-12.31,15.79-19.14,16.07-27.91.28-8.78-6.85-5.94-6.85-5.94l-23.44,7.14s-12.03,2.88-15.71-13.22c-3.69-16.09,3.38-41.24,3.3-46.19-.07-4.95-6.51-7.4-6.51-7.4l-.31-1.19c4.06.68,6.65-4.25,6.65-4.25,0,0,.55-2.72,3.94-10.98,3.39-8.25,11.99-15.89,11.99-15.89,0,0-2.53-.85-2.72-15.3-.2-14.44-6.01-19.45-6.01-19.45,8.5.52,18.92,9.67,19.02,15.53.09,5.85,7.63,14.31,20.76,9.2,13.13-5.12,15.09-7.02,16.54-10.86,1.46-3.85-3.06-6.36-3.06-6.36-2.54-3.76-3.75-2.26-3.75-2.26-3.91,4.13-6.52,3.72-6.52,3.72-6.11.19-7.48-5.68-7.48-5.68-.29-8.61-2.56-9.5-2.56-9.5,9.87-.38,4.58,7.33,7.97,9.47,3.39,2.13,6.61-1.81,5-4.92-1.62-3.11-3.41-6.44-3.41-6.44-6.36-5.21-5.77-11.45-6.05-16.25-.29-4.8-7.04-8.09-4.38-11.99,2.65-3.9.6-6.31.6-6.31-5.85-10.07-1.73-21.8-1.73-21.8-.51,10.1,8.16,14.09,8.16,14.09,0,0-.08-.52.78-3.17.85-2.66,5.53-1.35,6.05-3.04.51-1.69-1.43-2.17-.68-3.8.74-1.62,4.08.24,5.16-1.49,1.07-1.73-1.27-1.8-1.5-3.31-.22-1.51,1.59-1.43,4.25-1.77,2.65-.35,1.54-1.57,1.54-3.98s4.16-.3,4.48-4.67c.32-4.29,3.33-4.33,3.44-4.33h.05c.3-.98.54-2.84-.65-5.4-1.83-3.91-.14-7.39-3.18-10.44-3.04-3.05-3.97-3.41.11-6.51,0,0-.94-2.63,2.73-3.94,1.79-.64,3.64-3.84,3.64-3.84,2.98-3.92-5.97-10.97-3.57-15.33,1.5-2.73,4.09-3.99,5.45-4.51,0,0-5.92-5.04-.82-16.57,4.07-9.22,5.7-21.4,5.7-21.4v.12s1.63,12.18,5.7,21.4c5.1,11.53-.82,16.57-.82,16.57,1.36.52,3.95,1.78,5.45,4.51,2.4,4.36-6.55,11.41-3.57,15.33,0,0,1.85,3.2,3.64,3.84,3.67,1.31,2.73,3.94,2.73,3.94,4.08,3.1,3.15,3.46.11,6.51-3.04,3.05-1.35,6.53-3.18,10.44-1.19,2.56-.95,4.42-.65,5.4h.05c.11,0,3.12.04,3.44,4.33.32,4.37,4.48,2.26,4.48,4.67s-1.11,3.63,1.54,3.98c2.66.34,4.47.26,4.25,1.77-.23,1.51-2.57,1.58-1.5,3.31,1.08,1.73,4.42-.13,5.16,1.49.75,1.63-1.19,2.11-.68,3.8.52,1.69,5.2.38,6.05,3.04.86,2.65.78,3.17.78,3.17,0,0,8.67-3.99,8.16-14.09,0,0,4.12,11.73-1.73,21.8,0,0-2.05,2.41.6,6.31,2.66,3.9-4.09,7.19-4.38,11.99-.28,4.8.31,11.04-6.05,16.25,0,0-1.79,3.33-3.41,6.44-1.61,3.11,1.61,7.05,5,4.92,3.39-2.14-1.9-9.85,7.97-9.47,0,0-2.27.89-2.56,9.5,0,0-1.37,5.87-7.48,5.68,0,0-2.61.41-6.52-3.72,0,0-1.21-1.5-3.75,2.26,0,0-4.52,2.51-3.06,6.36,1.45,3.84,3.41,5.74,16.54,10.86,13.13,5.11,20.67-3.35,20.76-9.2.1-5.86,10.52-15.01,19.02-15.53,0,0-5.81,5.01-6.01,19.45-.19,14.45-2.72,15.3-2.72,15.3,0,0,8.6,7.64,11.99,15.89,3.39,8.26,3.94,10.98,3.94,10.98,0,0,2.59,4.93,6.65,4.25l-.31,1.19s-6.44,2.45-6.51,7.4c-.08,4.95,6.99,30.1,3.3,46.19-3.68,16.1-15.71,13.22-15.71,13.22l-23.44-7.14s-7.13-2.84-6.85,5.94c.28,8.77-1.54,15.6,16.07,27.91,0,0,3.16,1.84-1.59,3.6,0,0-2.88.68-1.66,2.84,1.22,2.16,6.66,11.6,6.66,11.6,0,0-.53,2.78,1.02,5.07,1.55,2.29,13.46,15.25,15.88,21.95l8.02,12.92c6.9,8.91,9.66,7.44,9.66,7.44,7.96-8.63,21.74-9.67,30.16-6.77,8.42,2.9,11.93-3.35,11.93-3.35,7.61-11.86,17.43-8.81,17.43-8.81Z"/>
  </g>
</svg>