<?xml version="1.0" encoding="UTF-8"?>
<svg id="Layer_2" xmlns="http://www.w3.org/2000/svg" viewBox="0 0 240.51 461.54">
  <defs>
    <style>
      .cls-1 {
        fill: #bfb5cb;
      }
    </style>
  </defs>
  <g id="Layer_1-2" data-name="Layer_1">
    <path class="cls-1" d="M240.11,461.54H.4c-1.19-25.34-2.26-69.54,36.57-76.71,1.47-.11,2.83-3.85,1.88-3.22-4.3-3.5-6.77-7.58-5.96-13.17.45-4.1,6.27-1.59,9.06-2.24.2-.32.25-.41.45-.75-.55-1.19.27-2.98-1.75-3.53-2.9-.78-1.68-3.17-1.59-4.89.33-3.19,5.9-1.45,8.2-2.05.03-1.4.07-2.79.11-4.19-1.7-.64-3.47-.93-3.35-3.58.14-3.16,2.35-2.24,3.99-2.4,6.25-1.54-4.77-5.33,4.14-8.25,7.88-3.37-2.62-2.47.62-8.32,3.33-6.01,19.9-9.47,15.67-13.1-4.67-.78,1.22-4.74-6.09-4.87-3.2-.05-3.38-2.02-2.37-4.4,25.44-31.5,5.03-88.51,42.15-98.39,0-1.65,2.26-.45-.01-5.59-3.81-.48-5.47-.84-5.33-3.74.27-5.32,5.36-2.31,4.46-11.8-.85-.08-1.24-1.69-2.1-1.77-.93-2.96-3.11-4.69,2.26-5.22,4.87-1.83-1.62-14.71,5.17-16.51.13.08.25.16.36.25.33-.04.65-.07,1-.1-.46,0-.92-.09-1.36-.15.06-5.61.17-11.21.16-16.81,0-1.79.16-3.22,2.5-3.07.08-.54.16-1.08.23-1.61.01,0,.02,0,.02-.01h.16c.66-3.57-2.13-11.24,2.33-12.45,3.57-2.3-1.64-11.81,3.95-15.2,1.33-.98-.09-2.56-1.95-2.5-1.9.06-2.34-.69-2.17-2.62,1.99-23,3.83-46.01,5.62-69.03l-10.12-17.53L120.02,0l12.72,22.02-9.72,16.82c1.81,23.25,3.66,46.5,5.68,69.74.17,1.93-.27,2.68-2.17,2.62-1.86-.06-3.28,1.52-1.95,2.5,5.59,3.39.38,12.9,3.95,15.2,4.46,1.21,1.66,8.88,2.33,12.45h.15s.02.01.03.01c.07.53.14,1.07.22,1.61,2.35-.15,2.52,1.28,2.51,3.07-.01,5.6.1,11.2.15,16.81-.44.06-.9.15-1.35.15.34.03.67.06,1,.1.11-.09.23-.17.35-.25,6.8,1.8.3,14.68,5.17,16.51,5.37.53,3.2,2.26,2.27,5.22-.87.08-1.26,1.69-2.1,1.77-.91,9.49,4.19,6.48,4.45,11.8.15,2.9-1.52,3.26-5.32,3.74-2.27,5.14-.01,3.94-.01,5.59,37.12,9.88,16.71,66.89,42.14,98.39,1.01,2.38.84,4.35-2.36,4.4-7.32.13-1.43,4.09-6.1,4.87-4.22,3.63,12.35,7.09,15.67,13.1,3.25,5.85-7.25,4.95.63,8.32,8.91,2.92-2.11,6.71,4.14,8.25,1.63.16,3.84-.76,3.99,2.4.12,2.65-1.65,2.94-3.35,3.58.03,1.4.08,2.79.11,4.19,2.3.6,7.87-1.14,8.2,2.05.09,1.72,1.31,4.11-1.59,4.89-2.02.55-1.2,2.34-1.76,3.53.2.34.25.43.45.75,2.8.65,8.61-1.86,9.07,2.24.81,5.59-1.67,9.67-5.97,13.17-.95-.63.42,3.11,1.89,3.22,38.82,7.17,37.75,51.36,36.57,76.71Z"/>
  </g>
</svg>