<?xml version="1.0" encoding="UTF-8"?>
<svg id="Layer_2" xmlns="http://www.w3.org/2000/svg" viewBox="0 0 177.71 64.58">
  <defs>
    <style>
      .cls-1 {
        fill: #ef4b25;
      }
    </style>
  </defs>
  <g id="Layer_2-2" data-name="Layer_2">
    <path class="cls-1" d="M67.01,24.02c-4.44-1.89-9.22-1.66-13.81-.43s-9,3.14-12.9,5.7c-3.68,2.42-6.93,5.58-9.02,9.49-1.92,3.59-3.1,8.13-1.92,12.15,1.24,4.22,5.05,5.95,9.21,5.2,3.38-.61,8.05-2.77,8.19-6.76.16-4.32-4.76-6.46-8.27-7.22-4.43-.97-9.08-.52-13.38.86C14.73,46.33,7.27,54.67.29,62.62c-.95,1.08.63,2.68,1.59,1.59,5.31-6.05,10.75-12.32,17.82-16.37,3.36-1.93,7.11-3.32,10.97-3.8,3.65-.45,7.9-.2,11.17,1.66,1.37.78,2.89,2.1,2.65,3.85s-1.95,2.76-3.36,3.42c-3.12,1.45-7.59,1.96-9.28-1.76-1.49-3.28-.48-7.5,1.02-10.58,1.67-3.43,4.28-6.33,7.36-8.56,3.57-2.59,7.68-4.47,11.88-5.81,4.41-1.41,9.37-2.18,13.77-.3,1.32.56,2.46-1.38,1.14-1.94h0Z"/>
    <path class="cls-1" d="M75.76,14.14c3.28,7.51,3.48,16.17.38,23.78-.59,1.45,2.31,1.29,2.74.22,3.23-7.93,3.21-16.92-.22-24.78-.51-1.17-3.38-.32-2.9.78h0Z"/>
    <path class="cls-1" d="M82.75,11.95c1.18,5.54-.36,11.55-4.18,15.76-.42.46.38.45.67.43.56-.05,1.53-.23,1.94-.68,3.97-4.37,5.71-10.48,4.47-16.28-.12-.56-3.04.13-2.9.78h0Z"/>
    <path class="cls-1" d="M77.5,26.11c3.37-1.95,7.27-2.36,11.01-1.29,3.34.96,6.91,3.32,7.14,7.11.04.62,2.95.1,2.9-.78-.27-4.5-5.05-7.06-8.97-7.84-4.65-.93-9.67-.08-13.77,2.29-.37.22-.86.54-.33.84.48.27,1.61-.1,2.03-.35h0Z"/>
    <path class="cls-1" d="M102.38,27.36c-3.81-4.88-8.02-10.44-7.73-16.96l-1.65.97c1.03-.15,2.63,2.28,3.21,2.9,1.08,1.17,2.19,2.31,3.34,3.41,2.29,2.21,4.71,4.28,7.23,6.23.61.47,2.67.21,2.79-.75.37-2.97-.18-5.9-.46-8.85-.14-1.46-.2-2.94.04-4.39.12-.71.31-1.41.59-2.07.08-.19.71-1.05.14-.74-.36,0-.37.11-.03.31.13.15.25.31.35.48,1.78,2.71,3.04,5.95,4.23,8.95s2.28,6.36,3.12,9.63c.25.98,3.15.22,2.9-.78-1.03-4.01-2.36-7.95-4-11.75-.79-1.83-1.65-3.63-2.57-5.4-.68-1.29-1.37-2.99-3.04-3.13-3.76-.32-4.72,4.16-4.75,7.03-.04,3.71,1.05,7.36.59,11.08l2.79-.75c-3-2.31-5.85-4.81-8.52-7.5-1.26-1.27-2.42-2.63-3.66-3.92-1.08-1.14-2.27-1.79-3.88-1.55-.43.06-1.62.37-1.65.97-.3,6.85,3.91,12.56,7.93,17.71.59.76,3.39-.24,2.69-1.12h0Z"/>
    <path class="cls-1" d="M123.21,5.81c-1.06,5.45-1.54,13.17,4.47,16.03,2.56,1.22,5.78.98,8.21-.46,2.62-1.55,3.58-4.46,3.71-7.36.09-1.93-.08-3.89-.17-5.82-.04-1.01-.09-2.02-.13-3.03-.02-.43-.06-.86-.05-1.28,0-.17.01-.33.05-.5.06-.21.31-.41,0-.26.4-.2.84-.57.32-.87s-1.58.12-2.03.34c-.98.49-1.25,1.22-1.23,2.27.03,1.61.14,3.22.21,4.82.13,2.92.55,6.11-.67,8.86-.45,1.01-1.18,2.13-2.23,2.58-.97.41-2.24.07-3.16-.3-2.37-.96-3.88-3.31-4.58-5.68-.94-3.21-.47-6.59.16-9.82.16-.8-2.72-.33-2.87.47h0Z"/>
    <path class="cls-1" d="M140.47,4.52c7.5-1.5,15.13-2.13,22.78-1.9.54.02,1.64-.22,1.92-.75.3-.57-.26-.68-.74-.7-7.88-.25-15.77.41-23.5,1.96-.45.09-1.58.32-1.67.91s.87.55,1.21.48h0Z"/>
    <path class="cls-1" d="M150.18,3.27c.13,5.08-.19,10.17-.99,15.19-.1.65,2.75.17,2.86-.52.82-5.11,1.17-10.27,1.03-15.45-.01-.46-2.92-.03-2.9.78h0Z"/>
    <path class="cls-1" d="M152.93,3.4c7.5-1.5,15.13-2.13,22.78-1.9.54.02,1.64-.22,1.92-.75.3-.57-.26-.68-.74-.7-7.88-.25-15.77.41-23.5,1.96-.45.09-1.58.32-1.67.91s.87.55,1.21.48h0Z"/>
    <path class="cls-1" d="M162.64,2.14c.13,5.08-.19,10.17-.99,15.19-.1.65,2.75.17,2.86-.52.82-5.11,1.17-10.27,1.03-15.45-.01-.46-2.92-.03-2.9.78h0Z"/>
  </g>
</svg>