<?xml version="1.0" encoding="UTF-8"?>
<svg id="Layer_2" xmlns="http://www.w3.org/2000/svg" viewBox="0 0 70.29 39.57">
  <g id="Layer_2-2" data-name="Layer_2">
    <path d="M.77,37.77c4.32,2.12,9.1,2.15,13.74,1.21s9.16-2.63,13.22-4.93c7.24-4.11,14.36-12.4,12.6-21.35-.87-4.45-4.73-6.77-9.11-6.26-3.6.42-8.5,2.27-9.1,6.39-.67,4.54,4.14,7.19,7.81,8.26,4.49,1.32,9.33,1.11,13.82-.05,10.66-2.76,18.66-10.81,26.11-18.46,1.35-1.38-.77-3.51-2.12-2.12-5.6,5.75-11.35,11.69-18.6,15.35-3.46,1.75-7.31,2.92-11.19,3.14-3.63.21-7.89-.27-10.94-2.43-1.16-.82-2.35-2.17-1.82-3.69s2.27-2.31,3.62-2.77c3.14-1.08,7.25-1.22,8.42,2.58,1.03,3.37-.21,7.25-1.91,10.18-1.89,3.26-4.67,5.89-7.84,7.88-3.69,2.32-7.86,3.93-12.09,5s-9.02,1.49-13.11-.52c-1.73-.85-3.25,1.74-1.51,2.59h0Z"/>
  </g>
</svg>