<?xml version="1.0" encoding="UTF-8"?>
<svg id="Layer_2" xmlns="http://www.w3.org/2000/svg" viewBox="0 0 125.98 94.54">
  <defs>
    <style>
      .cls-1 {
        fill: #212121;
      }

      .cls-2 {
        fill: #1a1a1a;
      }
    </style>
  </defs>
  <g id="logo-social">
    <g>
      <path class="cls-1" d="M28.62,45.88c0,15.75-.01,31.49.02,47.24,0,1.09-.24,1.43-1.39,1.42-5.9-.06-11.81-.07-17.71-.02-4.38.04-7.48-1.74-9.09-5.9-.06-.15-.18-.27-.27-.39,0,0-.06.02-.08.03-.03.02-.06.06-.09.09,0-21.32,0-42.65,0-63.97.13.09.27.18.4.28,9.39,7.03,18.78,14.07,28.17,21.1-.01.05,0,.09.04.12Z"/>
      <path class="cls-1" d="M125.98,88.35c-.63.02-.53.61-.69.96-1.58,3.31-4.19,5.13-7.85,5.18-6.31.08-12.63.02-18.94.03-.7,0-1.14-.05-1.14-.96.03-15.9.04-31.81.05-47.71.25-.21.5-.42.76-.62,9.27-6.95,18.54-13.9,27.81-20.85v63.97Z"/>
      <path d="M28.58,45.76C19.19,38.73,9.79,31.69.4,24.66c-.13-.1-.27-.19-.4-.28,0-4.84,0-9.68,0-14.52.53.15.41-.32.49-.55C3.5.33,13.3-2.79,20.91,2.84c2.66,1.97,5.28,4,7.92,6-.27.3-.27.67-.27,1.04,0,11.96.02,23.92.02,35.88Z"/>
      <path d="M125.98,24.38c-9.27,6.95-18.54,13.9-27.81,20.85-.26.2-.51.41-.76.62,0,0-.06-.08-.06-.08,0-12.36,0-24.73.01-37.09,2.94-2.22,5.78-4.59,8.85-6.62,6.93-4.59,16.43-1.18,19.1,6.7.14.41.09.92.5,1.22.01,0,.06-.02.09-.04.03-.03.06-.06.09-.09v14.52Z"/>
      <path class="cls-2" d="M97.36,8.69c0,12.36,0,24.73-.01,37.09-5.16,3.9-10.31,7.8-15.48,11.68-5.92,4.45-11.87,8.87-17.76,13.36-.89.68-1.42.6-2.27-.04-10.65-8.04-21.34-16.04-32.01-24.05-.39-.29-.8-.57-1.2-.85-.04-.03-.06-.07-.04-.12,0-11.96-.02-23.92-.02-35.88,0-.37,0-.74.27-1.04,5.15,3.84,10.31,7.67,15.45,11.52,5.93,4.44,11.87,8.88,17.77,13.35.72.54,1.17.54,1.89,0,10.72-8.08,21.47-16.13,32.22-24.18.39-.29.8-.56,1.2-.84Z"/>
    </g>
  </g>
</svg>