<?xml version="1.0" encoding="UTF-8"?>
<svg id="Layer_2" xmlns="http://www.w3.org/2000/svg" viewBox="0 0 129.66 126.59">
  <g id="logo-social">
    <path d="M129.66,70.18c-.38,2.3-.66,4.62-1.16,6.9-5.26,24.08-19.41,40.49-42.52,49.12-3.09,1.15-4.97-.22-4.99-3.53-.03-5.55.02-11.1-.02-16.65-.03-4.51-.65-8.86-4.26-12.37,2.64-.51,5.05-.9,7.43-1.44,12.84-2.87,20.42-11.57,21.69-24.66.54-5.52.7-10.99-1.66-16.14-1.02-2.23-2.59-4.2-3.81-6.34-.33-.58-.59-1.45-.41-2.04,1.6-5.02,1.01-9.9-.58-14.79-.46-1.4-1.38-1.83-2.51-1.49-3.28.99-6.56,2.05-9.75,3.31-1.68.66-3.13,1.89-4.78,2.65-.86.4-2,.66-2.88.45-9.77-2.35-19.5-2.34-29.26,0-.92.22-2.11-.16-3.05-.56-4.3-1.82-8.47-3.99-12.86-5.56-3.05-1.09-3.6-.48-4.5,2.67-1.27,4.5-1.51,8.98-.02,13.49.16.49,0,1.31-.32,1.69-5.06,5.88-6.44,12.82-5.86,20.3.46,5.86,1.76,11.5,5.08,16.46,3.89,5.8,9.72,8.73,16.25,10.45,2.5.66,5.09,1,7.25,1.4-1.05,2.72-2.1,5.52-3.25,8.27-.18.44-.84.79-1.35.95-7.53,2.47-13.06,1.36-17.24-5.5-2.1-3.44-4.95-5.91-8.91-6.81-1.29-.3-2.71-.05-4.07-.05-.12.3-.24.6-.37.9.83.9,1.52,2.05,2.53,2.66,3.06,1.84,5.3,4.48,6.39,7.69,2.79,8.2,9,10.39,16.74,10.24,1.94-.04,3.88-.26,6.12-.42,0,4.1.13,8.2-.05,12.29-.11,2.4-2.24,3.41-4.85,2.53-6.41-2.17-12.41-5.16-17.77-9.31C12.54,106.44,3.79,92.9.94,75.9-3.75,47.95,9.43,21.45,33.19,8.33c34.15-18.86,75.74-4.54,91.38,31.26,2.58,5.9,4.12,12.08,4.72,18.5.06.64.24,1.27.37,1.9v10.19Z"/>
  </g>
</svg>