<?xml version="1.0" encoding="UTF-8"?>
<svg id="Layer_2" xmlns="http://www.w3.org/2000/svg" viewBox="0 0 130.01 88.99">
  <g id="logo-social">
    <path d="M129.52,29.11c-.65-10.76-4.15-21.33-14.59-25.73-5.56-2.35-11.83-2.51-17.85-2.76-6.89-.2-15.15-.36-21.35-.5-14.68-.37-29.45.18-44.25.48C18.16.88,8.61,2.01,3.25,13.69.94,19.18.47,26.12.21,32.17c-.25,6.43-.26,13.45-.11,19.84.31,11.59,1.17,25.29,11.8,31.88,7.59,5.2,21.28,4.31,31.38,4.72,11.14.27,21.84.54,32.85.24,10.77-.52,23.61.28,34.51-1.84l.17-.04c16.25-3.92,18.82-19.07,19.07-33.84.18-7.87.25-16.14-.36-24.02ZM50.19,63.72V25.26l33.37,19.22-33.37,19.24Z"/>
  </g>
</svg>