<?xml version="1.0" encoding="UTF-8"?>
<svg id="Layer_2" xmlns="http://www.w3.org/2000/svg" viewBox="0 0 129 129">
  <defs>
    <style>
      .cls-1 {
        fill: #010101;
      }
    </style>
  </defs>
  <g id="Layer_1-2" data-name="Layer_1">
    <g>
      <path class="cls-1" d="M129,63.69c-.01,9.51.06,18.15-.34,26.8-.27,5.91-1.05,11.72-3.43,17.19-3.9,8.98-10.5,15.09-19.72,18.37-4.73,1.68-9.64,2.33-14.62,2.55-13.48.6-26.96.33-40.44.33-5.48,0-10.96-.11-16.42-.63-6.44-.61-12.58-2.29-18.02-5.91-7.69-5.11-12.3-12.34-14.34-21.29-.75-3.31-1.13-6.67-1.27-10.05C-.21,76.18.03,61.3.13,46.42c.03-4.64.15-9.29.74-13.91,1.09-8.4,4.05-15.92,10.24-21.96C16.07,5.7,22.04,2.89,28.75,1.47c3-.64,6.05-.93,9.11-1.09C44.22.06,50.58,0,56.94.01c10.04.03,20.09-.13,30.13.2,5.05.17,10.1.37,15.01,1.68,13.96,3.73,22.34,12.78,25.44,26.81,1.11,5.04,1.16,10.18,1.32,15.3.22,6.85.12,13.69.15,19.68ZM64.55,11.63c-6.2.02-12.41-.05-18.61.12-4.75.13-9.51.11-14.21,1-10.07,1.92-16.42,7.78-18.73,17.85-.9,3.9-1,7.88-1.13,11.85-.33,10.23-.19,20.46-.2,30.7,0,6.37.07,12.73.48,19.08.25,3.88.91,7.69,2.52,11.25,3.08,6.81,8.48,10.75,15.65,12.44,4.24,1,8.57,1.14,12.89,1.22,15.49.28,30.99.4,46.48-.15,3.74-.13,7.45-.49,11.04-1.63,7.47-2.36,12.37-7.28,14.7-14.75,1.11-3.57,1.45-7.25,1.61-10.96.49-11.17.3-22.34.32-33.51.01-5.59-.07-11.17-.32-16.75-.15-3.36-.43-6.7-1.3-9.96-1.87-6.99-5.96-12.11-12.67-14.98-3.42-1.46-7.04-2.09-10.73-2.32-9.25-.59-18.52-.47-27.79-.49Z"/>
      <path class="cls-1" d="M97.65,64.47c.11,18.17-14.66,32.97-33.09,33.15-18.12.18-33.13-14.8-33.17-33.07-.03-18.3,14.84-33.2,33.13-33.19,18.29.01,33.02,14.74,33.13,33.11ZM43.05,64.47c0,11.87,9.57,21.47,21.43,21.49,11.9.02,21.5-9.56,21.52-21.49.02-11.79-9.62-21.45-21.39-21.45-11.94,0-21.55,9.56-21.55,21.45Z"/>
      <path class="cls-1" d="M99.02,37.82c-4.2.12-7.74-3.33-7.83-7.64-.09-4.23,3.29-7.73,7.62-7.87,4.17-.14,7.78,3.35,7.89,7.62.1,4.27-3.29,7.77-7.67,7.89Z"/>
    </g>
  </g>
</svg>