<?xml version="1.0" encoding="UTF-8"?>
<svg id="Layer_2" xmlns="http://www.w3.org/2000/svg" viewBox="0 0 105.98 128.56">
  <g id="logo-social">
    <g>
      <path d="M43.85,0C49.94,0,56.03,0,62.13,0c.07.94.21,1.87.21,2.81.02,8.43,0,16.86.03,25.29,0,.87-.39,1.85.44,2.7.3-.25.57-.46.81-.7,6.32-6.4,12.68-12.77,18.93-19.22,1.2-1.24,1.88-1.26,3.06,0,3.02,3.21,6.1,6.38,9.31,9.4,1.44,1.35,1.56,2.1.01,3.52-6.39,5.83-12.65,11.81-18.93,17.76-.51.49-1.38.78-1.33,1.83h31.31v17.55c-1.04.07-2.07.21-3.11.21-8.61.02-17.22,0-25.83.03-.88,0-1.88-.37-2.75.43.25.29.45.57.69.8,6.73,6.48,13.44,12.98,20.23,19.4,1.17,1.1,1.2,1.72.03,2.83-3.27,3.09-6.48,6.25-9.56,9.52-1.29,1.37-2,1.2-3.24-.05-9.15-9.2-18.41-18.29-27.53-27.51-1.52-1.54-2.29-1.56-3.82-.01-9.12,9.23-18.38,18.31-27.54,27.51-1.21,1.21-1.91,1.51-3.23.1-3.02-3.21-6.17-6.31-9.41-9.3-1.32-1.22-1.4-1.89-.04-3.17,6.49-6.11,12.88-12.32,19.28-18.51.52-.5,1.33-.82,1.36-1.99-4.55,0-9.05-.06-13.55.01-5.99.1-11.98-.33-17.97.22v-18.07h31.27c-.38-1.09-1.02-1.54-1.58-2.07-6.24-5.87-12.41-11.81-18.73-17.59-1.49-1.36-1.37-2.04,0-3.34,3.14-2.98,6.19-6.05,9.08-9.26,1.52-1.69,2.37-1.41,3.8.1,5.73,6,11.62,11.86,17.41,17.81.62.64,1.01,1.5,1.51,2.25.3-.22.59-.44.89-.66,0-1.87-.02-3.74,0-5.61C43.77,16.67,43.37,8.33,43.85,0Z"/>
      <path d="M43.33,128.56c.47-3.51.18-7.03.2-10.55.05-9.54.1-19.09-.04-28.63-.04-2.35.69-2.88,2.92-2.8,4.69.17,9.39.07,14.08.04,1.05,0,1.82.03,1.82,1.45-.09,13.49-.13,26.99-.18,40.48h-18.79Z"/>
    </g>
  </g>
</svg>