<?xml version="1.0" encoding="UTF-8"?>
<svg id="Layer_2" xmlns="http://www.w3.org/2000/svg" viewBox="0 0 127.83 127.83">
  <defs>
    <style>
      .cls-1 {
        fill: #fff;
      }

      .cls-2 {
        fill: #1e4cff;
      }
    </style>
  </defs>
  <g id="Layer_2-2" data-name="Layer_2">
    <g>
      <rect class="cls-2" x="0" y="0" width="127.83" height="127.83" rx="63.92" ry="63.92"/>
      <path class="cls-1" d="M24.48,40.23c10.03,10.19,16.91,23.23,19.74,37.25.8,3.94,1.26,7.94,1.4,11.96l5.8-1.55c-.79-9.04-1.47-18.68,1.89-27.32.81-2.07,1.86-4.01,3.2-5.79.86-1.14,2.26-3.22,3.77-3.34,2.17-.18,4.63,1.43,6.3,2.64,1.91,1.39,3.67,2.99,5.24,4.76,3.1,3.5,5.41,7.66,6.72,12.15,1.09,3.75,1.67,9.93-2.71,11.69.35-.14-.3.09-.38.11-.53.12.31-.02-.23.03-.23.02-.51.02-.84-.02-.9-.11-1.8-.53-2.52-1.06-1.66-1.23-2.78-3.05-3.15-5.08-.65-3.58,1.66-6.69,4.51-8.15,1.68-.86,3.21-1.21,5.21-1.45,2.11-.25,4.79-.11,7.17-.09,5.79.06,11.91-.34,16.86-3.66.74-.49,1.76-1.49.55-2.11-1.11-.56-3.12-.07-4.09.58-4.22,2.82-9.76,2.06-14.68,2.04s-10.38.8-14.94,3.36c-3.95,2.22-7.25,6.22-6.39,11.02.96,5.35,6.18,8.22,11.29,7.62,5.74-.67,10.82-4.62,10.97-10.68.14-5.46-2.48-11.02-5.52-15.43s-7.34-8.64-12.36-10.5c-3.13-1.16-6.6-1.18-9.69.13-2.71,1.15-4.84,3.22-6.57,5.56-7.26,9.8-6.41,23.02-5.41,34.52.15,1.76,5.87.49,5.8-1.55-.52-14.48-5.39-28.61-13.69-40.46-2.35-3.35-4.98-6.49-7.85-9.41-1.34-1.36-6.81.77-5.4,2.21h0Z"/>
    </g>
  </g>
</svg>